<?xml version="1.0" encoding="UTF-8"?>
<svg width="56px" height="56px" viewBox="0 0 56 56" version="1.1" xmlns="http://www.w3.org/2000/svg" xmlns:xlink="http://www.w3.org/1999/xlink">
    <!-- Generator: sketchtool 64 (101010) - https://sketch.com -->
    <title>DDD14888-B2ED-484D-89BE-48A9634BC0A3@2x</title>
    <desc>Created with sketchtool.</desc>
    <defs>
        <polygon id="path-1" points="0.0002187 0 55.404 0 55.404 55.404 0.0002187 55.404"></polygon>
    </defs>
    <g id="Page-1" stroke="none" stroke-width="1" fill="none" fill-rule="evenodd">
        <g id="Set-Picto" transform="translate(-434.000000, -34.000000)">
            <g id="Picto_corona" transform="translate(434.000000, 34.000000)">
                <g id="Group-3">
                    <mask id="mask-2" fill="white">
                        <use xlink:href="#path-1"></use>
                    </mask>
                    <g id="Clip-2"></g>
                    <path d="M5.1258177,27.702 C5.1258177,28.443393 4.5229347,29.046276 3.7815417,29.046276 C3.0408777,29.046276 2.4372657,28.443393 2.4372657,27.702 C2.4372657,26.960607 3.0408777,26.357724 3.7815417,26.357724 C4.5229347,26.357724 5.1258177,26.960607 5.1258177,27.702 M29.0464947,51.622677 C29.0464947,52.363341 28.4428827,52.966224 27.7022187,52.966224 C26.9608257,52.966224 26.3579427,52.363341 26.3579427,51.622677 C26.3579427,50.881284 26.9608257,50.278401 27.7022187,50.278401 C28.4428827,50.278401 29.0464947,50.881284 29.0464947,51.622677 M27.7022187,5.125599 C26.9608257,5.125599 26.3579427,4.522716 26.3579427,3.781323 C26.3579427,3.040659 26.9608257,2.437776 27.7022187,2.437776 C28.4428827,2.437776 29.0464947,3.040659 29.0464947,3.781323 C29.0464947,4.522716 28.4428827,5.125599 27.7022187,5.125599 M27.7022187,41.860638 C19.8953577,41.860638 13.5435807,35.508861 13.5435807,27.702 C13.5435807,19.895139 19.8953577,13.543362 27.7022187,13.543362 C35.5090797,13.543362 41.8608567,19.895139 41.8608567,27.702 C41.8608567,35.508861 35.5090797,41.860638 27.7022187,41.860638 M43.2722007,10.787742 C43.2722007,10.429803 43.4128977,10.091547 43.6658607,9.837126 C44.1732447,9.331929 45.0597087,9.331929 45.5670927,9.837126 C46.0905147,10.361277 46.0905147,11.214936 45.5670927,11.739087 C45.0597087,12.245742 44.1732447,12.246471 43.6658607,11.738358 C43.4121687,11.483937 43.2722007,11.14641 43.2722007,10.787742 M12.1315077,10.787742 C12.1315077,11.147139 11.9922687,11.484666 11.7378477,11.739087 C11.2311927,12.245742 10.3454577,12.245742 9.8373447,11.739087 C9.3131937,11.214207 9.3131937,10.362006 9.8373447,9.837855 C10.3425417,9.332658 11.2311927,9.331929 11.7378477,9.837126 C11.9922687,10.091547 12.1315077,10.429074 12.1315077,10.787742 M12.1315077,44.616258 C12.1315077,44.975655 11.9922687,45.313182 11.7378477,45.566874 C11.2311927,46.073529 10.3439997,46.073529 9.8373447,45.566874 C9.3139227,45.042723 9.3139227,44.189793 9.8373447,43.665642 C10.0917657,43.412679 10.4292927,43.271982 10.7879607,43.271982 C11.1466287,43.271982 11.4841557,43.41195 11.7378477,43.665642 C11.9922687,43.919334 12.1315077,44.256861 12.1315077,44.616258 M43.2722007,44.616258 C43.2722007,44.25759 43.4121687,43.920063 43.6658607,43.665642 C43.9202817,43.41195 44.2578087,43.271982 44.6164767,43.271982 C44.9751447,43.271982 45.3126717,43.41195 45.5670927,43.665642 C46.0905147,44.189793 46.0905147,45.042723 45.5670927,45.566874 C45.0429417,46.091025 44.1900117,46.091025 43.6658607,45.566874 C43.4121687,45.312453 43.2722007,44.974926 43.2722007,44.616258 M52.9664427,27.702 C52.9664427,28.443393 52.3635597,29.046276 51.6221667,29.046276 C50.8815027,29.046276 50.2786197,28.443393 50.2786197,27.702 C50.2786197,26.960607 50.8815027,26.357724 51.6221667,26.357724 C52.3635597,26.357724 52.9664427,26.960607 52.9664427,27.702 M51.6221667,23.920677 C49.9972257,23.920677 48.5647407,24.960231 48.0464217,26.483112 L44.2534347,26.483112 C43.9939107,22.949649 42.5869407,19.559799 40.2607017,16.866873 L42.9485247,14.179779 C43.4661147,14.435658 44.0376507,14.569065 44.6164767,14.569065 C45.6268707,14.569065 46.5760287,14.176134 47.2904487,13.462443 C48.7637577,11.987676 48.7637577,9.587808 47.2904487,8.11377 C45.8149527,6.639003 43.4158137,6.640461 41.9425047,8.11377 C41.2280847,8.827461 40.8344247,9.777348 40.8344247,10.787742 C40.8344247,11.365839 40.9692897,11.937375 41.2251687,12.456423 L38.5373457,15.142788 C35.8444197,12.818007 32.4538407,11.410308 28.9211067,11.150784 L28.9211067,7.357797 C30.4432587,6.839478 31.4835417,5.407722 31.4835417,3.781323 C31.4835417,1.696383 29.7871587,0 27.7022187,0 C25.6165497,0 23.9201667,1.696383 23.9201667,3.781323 C23.9201667,5.407722 24.9604497,6.839478 26.4833307,7.357797 L26.4833307,11.150784 C22.9498677,11.410308 19.5600177,12.818007 16.8663627,15.142788 L14.1792687,12.456423 C14.4351477,11.938104 14.5692837,11.367297 14.5692837,10.787742 C14.5692837,9.777348 14.1756237,8.827461 13.4619327,8.11377 C11.9886237,6.640461 9.5894847,6.639003 8.1139887,8.11377 C6.6399507,9.587808 6.6399507,11.987676 8.1139887,13.462443 C8.8284087,14.176134 9.7782957,14.569065 10.7879607,14.569065 C11.3667867,14.569065 11.9383227,14.435658 12.4566417,14.179779 L15.1430067,16.866873 C12.8182257,19.559799 11.4105267,22.949649 11.1510027,26.483112 L7.3580157,26.483112 C6.8396967,24.960231 5.4072117,23.920677 3.7815417,23.920677 C1.6966017,23.920677 0.0002187,25.61706 0.0002187,27.702 C0.0002187,29.78694 1.6966017,31.483323 3.7815417,31.483323 C5.4079407,31.483323 6.8396967,30.443769 7.3580157,28.920888 L11.1510027,28.920888 C11.4105267,32.45508 12.8182257,35.84493 15.1430067,38.537856 L12.4559127,41.22495 C11.9375937,40.969071 11.3667867,40.834935 10.7879607,40.834935 C9.7775667,40.834935 8.8276797,41.228595 8.1139887,41.942286 C6.6399507,43.416324 6.6399507,45.815463 8.1139887,47.290959 C8.8276797,48.00465 9.7768377,48.396852 10.7879607,48.396852 C11.7990837,48.396852 12.7489707,48.003921 13.4619327,47.29023 C14.1756237,46.577268 14.5692837,45.627381 14.5692837,44.616258 C14.5692837,44.037432 14.4358767,43.466625 14.1792687,42.948306 L16.8663627,40.261212 C19.5600177,42.586722 22.9498677,43.994421 26.4833307,44.253216 L26.4833307,48.046203 C24.9604497,48.564522 23.9201667,49.996278 23.9201667,51.622677 C23.9201667,53.707617 25.6165497,55.404 27.7022187,55.404 C29.7871587,55.404 31.4835417,53.707617 31.4835417,51.622677 C31.4835417,49.996278 30.4432587,48.564522 28.9211067,48.046203 L28.9211067,44.253216 C32.4538407,43.994421 35.8444197,42.586722 38.5373457,40.261212 L41.2251687,42.948306 C40.9692897,43.467354 40.8344247,44.038161 40.8344247,44.616258 C40.8344247,45.627381 41.2280847,46.577268 41.9425047,47.29023 C42.6547377,48.003921 43.6046247,48.396852 44.6164767,48.396852 C45.6275997,48.396852 46.5767577,48.003921 47.2904487,47.29023 C48.7644867,45.815463 48.7644867,43.416324 47.2904487,41.942286 C46.5767577,41.228595 45.6275997,40.834935 44.6164767,40.834935 C44.0376507,40.834935 43.4668437,40.969071 42.9485247,41.22495 L40.2607017,38.537856 C42.5869407,35.84493 43.9939107,32.45508 44.2534347,28.920888 L48.0464217,28.920888 C48.5647407,30.443769 49.9964967,31.483323 51.6221667,31.483323 C53.7078357,31.483323 55.4042187,29.78694 55.4042187,27.702 C55.4042187,25.61706 53.7078357,23.920677 51.6221667,23.920677" id="Fill-1" fill="#262626" mask="url(#mask-2)"></path>
                </g>
                <path d="M20.9637801,28.6531263 C20.4396291,29.1780063 19.5866991,29.1765483 19.0632771,28.6531263 C18.5391261,28.1289753 18.5391261,27.2753163 19.0632771,26.7518943 C19.3155111,26.4989313 19.6530381,26.3596923 20.0131641,26.3596923 C20.3732901,26.3596923 20.7108171,26.4989313 20.9637801,26.7518943 C21.4879311,27.2753163 21.4879311,28.1282463 20.9637801,28.6531263 M22.6871361,25.0278093 C21.2145561,23.5552293 18.8154171,23.5537713 17.3391921,25.0278093 C15.8651541,26.5033053 15.8651541,28.9024443 17.3391921,30.3757533 C18.0528831,31.0894443 19.0027701,31.4823753 20.0131641,31.4823753 C21.0242871,31.4823753 21.9741741,31.0894443 22.6871361,30.3757533 C23.4008271,29.6635203 23.7937581,28.7136333 23.7937581,27.7017813 C23.7937581,26.6913873 23.4008271,25.7415003 22.6871361,25.0278093" id="Fill-4" fill="#262626"></path>
                <path d="M28.6523973,20.9644362 C28.1275173,21.4893162 27.2745873,21.4878582 26.7518943,20.9644362 C26.2277433,20.4402852 26.2277433,19.5866262 26.7518943,19.0632042 C27.0041283,18.8102412 27.3416553,18.6710022 27.7017813,18.6710022 C28.0619073,18.6710022 28.3994343,18.8102412 28.6523973,19.0632042 C29.1765483,19.5866262 29.1765483,20.4395562 28.6523973,20.9644362 M30.3757533,17.3391192 C28.9031733,15.8665392 26.5040343,15.8650812 25.0278093,17.3391192 C23.5537713,18.8146152 23.5537713,21.2137542 25.0278093,22.6870632 C25.7415003,23.4007542 26.6913873,23.7936852 27.7017813,23.7936852 C28.7129043,23.7936852 29.6627913,23.4007542 30.3757533,22.6870632 C31.0894443,21.9748302 31.4823753,21.0249432 31.4823753,20.0130912 C31.4823753,19.0026972 31.0894443,18.0528102 30.3757533,17.3391192" id="Fill-6" fill="#262626"></path>
                <path d="M36.3410874,28.6531263 C35.8162074,29.1780063 34.9632774,29.1765483 34.4405844,28.6531263 C33.9164334,28.1289753 33.9164334,27.2753163 34.4405844,26.7518943 C34.6928184,26.4989313 35.0303454,26.3596923 35.3904714,26.3596923 C35.7505974,26.3596923 36.0881244,26.4989313 36.3410874,26.7518943 C36.8652384,27.2753163 36.8652384,28.1282463 36.3410874,28.6531263 M38.0644434,25.0278093 C36.5918634,23.5552293 34.1927244,23.5537713 32.7164994,25.0278093 C31.2424614,26.5033053 31.2424614,28.9024443 32.7164994,30.3757533 C33.4301904,31.0894443 34.3800774,31.4823753 35.3904714,31.4823753 C36.4015944,31.4823753 37.3514814,31.0894443 38.0644434,30.3757533 C38.7781344,29.6635203 39.1710654,28.7136333 39.1710654,27.7017813 C39.1710654,26.6913873 38.7781344,25.7415003 38.0644434,25.0278093" id="Fill-8" fill="#262626"></path>
                <path d="M28.6523973,36.3417435 C28.1275173,36.8666235 27.2745873,36.8651655 26.7518943,36.3417435 C26.2277433,35.8175925 26.2277433,34.9639335 26.7518943,34.4405115 C27.0041283,34.1875485 27.3416553,34.0483095 27.7017813,34.0483095 C28.0619073,34.0483095 28.3994343,34.1875485 28.6523973,34.4405115 C29.1765483,34.9639335 29.1765483,35.8168635 28.6523973,36.3417435 M30.3757533,32.7164265 C28.9031733,31.2438465 26.5040343,31.2423885 25.0278093,32.7164265 C23.5537713,34.1919225 23.5537713,36.5910615 25.0278093,38.0643705 C25.7415003,38.7780615 26.6913873,39.1709925 27.7017813,39.1709925 C28.7129043,39.1709925 29.6627913,38.7780615 30.3757533,38.0643705 C31.0894443,37.3521375 31.4823753,36.4022505 31.4823753,35.3903985 C31.4823753,34.3800045 31.0894443,33.4301175 30.3757533,32.7164265" id="Fill-10" fill="#262626"></path>
            </g>
        </g>
    </g>
</svg>