<?xml version="1.0" encoding="UTF-8"?>
<svg width="41px" height="53px" viewBox="0 0 41 53" version="1.1" xmlns="http://www.w3.org/2000/svg" xmlns:xlink="http://www.w3.org/1999/xlink">
    <!-- Generator: sketchtool 64 (101010) - https://sketch.com -->
    <title>3EABCFF2-6706-4418-8BAD-428C5539ADDA@2x</title>
    <desc>Created with sketchtool.</desc>
    <defs>
        <polygon id="path-1" points="0 0 40.319928 0 40.319928 52.416 0 52.416"></polygon>
    </defs>
    <g id="Page-1" stroke="none" stroke-width="1" fill="none" fill-rule="evenodd">
        <g id="Set-Picto" transform="translate(-243.000000, -34.000000)">
            <g id="Picto_etablissement" transform="translate(243.000000, 34.000000)">
                <mask id="mask-2" fill="white">
                    <use xlink:href="#path-1"></use>
                </mask>
                <g id="Clip-2"></g>
                <path d="M25.912728,44.647488 C25.722648,44.455248 25.467768,44.352288 25.199208,44.352288 L15.119208,44.352288 C14.853528,44.352288 14.592888,44.458848 14.406408,44.645328 C14.218488,44.833248 14.109768,45.092448 14.1118964,45.358848 L14.1118964,51.408288 C14.109768,51.961968 14.561208,52.416288 15.119208,52.416288 C15.675768,52.416288 16.127928,51.961968 16.127928,51.408288 L16.125768,51.408288 L16.125768,46.365408 L24.191928,46.365408 L24.191928,51.408288 C24.190488,51.961968 24.641208,52.416288 25.199208,52.416288 C25.755768,52.416288 26.207928,51.961968 26.207928,51.408288 L26.207928,45.358848 C26.207928,45.090288 26.102808,44.837568 25.912728,44.647488 M31.247928,38.303568 L9.070488,38.303568 C8.513928,38.303568 8.063208,38.754288 8.063208,39.310848 C8.063208,39.866688 8.513928,40.319568 9.070488,40.319568 L31.247928,40.319568 C31.804488,40.319568 32.255928,39.866688 32.255928,39.310848 C32.255928,38.754288 31.804488,38.303568 31.247928,38.303568 M31.246488,32.2562846 L9.072648,32.2562846 C8.513928,32.254848 8.063208,32.705568 8.063208,33.263568 C8.063208,33.820128 8.513928,34.270848 9.072648,34.270848 L31.246488,34.270848 C31.803768,34.270848 32.255928,33.820128 32.255928,33.263568 C32.255928,32.705568 31.803768,32.254848 31.246488,32.2562846 M31.246488,26.208288 L9.072648,26.208288 C8.513928,26.208288 8.063208,26.659008 8.063208,27.214848 C8.063208,27.771408 8.513928,28.223568 9.072648,28.223568 L31.246488,28.223568 C31.803768,28.223568 32.255928,27.771408 32.255928,27.214848 C32.255928,26.659008 31.803768,26.208288 31.246488,26.208288 M31.246488,20.161008 L9.072648,20.161008 C8.513928,20.161008 8.063208,20.608848 8.063208,21.168288 C8.063208,21.724128 8.513928,22.174848 9.072648,22.174848 L31.246488,22.174848 C31.803768,22.174848 32.255928,21.724128 32.255928,21.168288 C32.255928,20.608848 31.803768,20.161008 31.246488,20.161008 M23.183928,7.056288 L21.167928,7.056288 L21.167928,5.039568 C21.168648,4.482288 20.715768,4.032288 20.157768,4.032288 C19.602648,4.032288 19.150488,4.482288 19.151928,5.039568 L19.151928,7.056288 L17.135928,7.056288 C16.578648,7.056288 16.127928,7.505568 16.127928,8.063568 C16.127928,8.620128 16.578648,9.072288 17.135928,9.070848 L19.151928,9.070848 L19.151928,11.087568 C19.150488,11.643408 19.602648,12.094848 20.157768,12.094848 C20.715768,12.094848 21.168648,11.643408 21.167928,11.087568 L21.167928,9.070848 L23.183928,9.070848 C23.739768,9.072288 24.191928,8.620128 24.191928,8.063568 C24.191928,7.505568 23.739768,7.056288 23.183928,7.056288 M20.159928,14.110848 C16.819848,14.104368 14.117688,11.400048 14.110488,8.063568 C14.117688,4.726368 16.819848,2.022048 20.159928,2.016288 C23.497848,2.022048 26.200008,4.726368 26.207928,8.063568 C26.200008,11.400048 23.497848,14.104368 20.159928,14.110848 M39.310488,50.399568 L38.301768,50.399568 L38.301768,7.056288 C38.301768,6.790608 38.197368,6.530688 38.008728,6.342768 C37.820808,6.154848 37.560888,6.047568 37.295208,6.048288 L27.957528,6.048288 C27.060408,2.571408 23.914728,0.001728 20.159928,-0.000432 C16.403688,0.001728 13.257288,2.571408 12.360888,6.048288 L3.023928,6.048288 C2.758248,6.047568 2.497608,6.154848 2.310408,6.342768 C2.122488,6.530688 2.015208,6.790608 2.015928,7.056288 L2.015928,50.399568 L1.007928,50.399568 C0.451368,50.399568 -7.2e-05,50.851008 -7.2e-05,51.408288 C-7.2e-05,51.961968 0.451368,52.416288 1.007928,52.416288 L3.023928,52.416288 C3.291768,52.416288 3.547368,52.311168 3.736728,52.118928 C3.926808,51.928848 4.029768,51.676128 4.029768,51.408288 L4.029768,8.062848 L12.095928,8.062848 L12.095928,8.063568 C12.095928,12.513888 15.705288,16.126128 20.159928,16.128288 C24.612408,16.126128 28.221768,12.513888 28.221768,8.063568 L28.221768,8.062848 L36.287928,8.062848 L36.287928,51.408288 C36.287928,51.671808 36.394488,51.932448 36.580968,52.120368 C36.768888,52.306848 37.028808,52.416288 37.295208,52.416288 L39.310488,52.416288 C39.868488,52.416288 40.319928,51.961968 40.319928,51.408288 C40.319928,50.851008 39.868488,50.399568 39.310488,50.399568" id="Fill-1" fill="#1A1A1A" mask="url(#mask-2)"></path>
            </g>
        </g>
    </g>
</svg>