<?xml version="1.0" encoding="UTF-8"?>
<svg width="55px" height="55px" viewBox="0 0 55 55" version="1.1" xmlns="http://www.w3.org/2000/svg" xmlns:xlink="http://www.w3.org/1999/xlink">
    <!-- Generator: sketchtool 64 (101010) - https://sketch.com -->
    <title>C4CC61B9-A26B-46E8-A592-91F6200084E6@2x</title>
    <desc>Created with sketchtool.</desc>
    <g id="Page-1" stroke="none" stroke-width="1" fill="none" fill-rule="evenodd">
        <g id="Set-Picto" transform="translate(-72.000000, -120.000000)">
            <g id="Group-49" transform="translate(72.000000, 120.000000)">
                <path d="M4.52916,2.04696 C3.16116,2.04696 2.04732,3.1608 2.04732,4.52952 L2.04732,50.1804 C2.04732,51.54912 3.16116,52.66224 4.52916,52.66224 L26.55972,52.66224 C27.92844,52.66224 29.04228,51.54912 29.04228,50.1804 L29.04228,4.52952 C29.04228,3.1608 27.92844,2.04696 26.55972,2.04696 L4.52916,2.04696 Z M26.55972,54.34992 L4.52916,54.34992 C2.2302,54.34992 0.36036,52.47936 0.36036,50.1804 L0.36036,4.52952 C0.36036,2.23056 2.2302,0.36 4.52916,0.36 L26.55972,0.36 C28.85868,0.36 30.72924,2.23056 30.72924,4.52952 L30.72924,50.1804 C30.72924,52.47936 28.85868,54.34992 26.55972,54.34992 L26.55972,54.34992 Z" id="Fill-1" fill="#1D1D1B"></path>
                <path d="M4.52916,2.04696 C3.16116,2.04696 2.04732,3.1608 2.04732,4.52952 L2.04732,50.1804 C2.04732,51.54912 3.16116,52.66224 4.52916,52.66224 L26.55972,52.66224 C27.92844,52.66224 29.04228,51.54912 29.04228,50.1804 L29.04228,4.52952 C29.04228,3.1608 27.92844,2.04696 26.55972,2.04696 L4.52916,2.04696 Z M26.55972,54.34992 L4.52916,54.34992 C2.2302,54.34992 0.36036,52.47936 0.36036,50.1804 L0.36036,4.52952 C0.36036,2.23056 2.2302,0.36 4.52916,0.36 L26.55972,0.36 C28.85868,0.36 30.72924,2.23056 30.72924,4.52952 L30.72924,50.1804 C30.72924,52.47936 28.85868,54.34992 26.55972,54.34992 Z" id="Stroke-3" stroke="#262626" stroke-width="0.72" stroke-linecap="round" stroke-linejoin="round"></path>
                <path d="M9.850392,7.952472 C8.571672,7.952472 7.530552,8.992872 7.530552,10.272312 C7.530552,11.551032 8.571672,12.591432 9.850392,12.591432 C11.129112,12.591432 12.170232,11.551032 12.170232,10.272312 C12.170232,8.992872 11.129112,7.952472 9.850392,7.952472 M9.850392,14.279112 C7.641432,14.279112 5.843592,12.481272 5.843592,10.272312 C5.843592,8.062632 7.641432,6.264792 9.850392,6.264792 C12.059352,6.264792 13.857192,8.062632 13.857192,10.272312 C13.857192,12.481272 12.059352,14.279112 9.850392,14.279112" id="Fill-5" fill="#1D1D1B"></path>
                <path d="M9.850392,7.952472 C8.571672,7.952472 7.530552,8.992872 7.530552,10.272312 C7.530552,11.551032 8.571672,12.591432 9.850392,12.591432 C11.129112,12.591432 12.170232,11.551032 12.170232,10.272312 C12.170232,8.992872 11.129112,7.952472 9.850392,7.952472 Z M9.850392,14.279112 C7.641432,14.279112 5.843592,12.481272 5.843592,10.272312 C5.843592,8.062632 7.641432,6.264792 9.850392,6.264792 C12.059352,6.264792 13.857192,8.062632 13.857192,10.272312 C13.857192,12.481272 12.059352,14.279112 9.850392,14.279112 Z" id="Stroke-7" stroke="#262626" stroke-width="0.72" stroke-linecap="round" stroke-linejoin="round"></path>
                <path d="M21.23892,7.952472 C19.95948,7.952472 18.91836,8.992872 18.91836,10.272312 C18.91836,11.551032 19.95948,12.591432 21.23892,12.591432 C22.51764,12.591432 23.55876,11.551032 23.55876,10.272312 C23.55876,8.992872 22.51764,7.952472 21.23892,7.952472 M21.23892,14.279112 C19.02924,14.279112 17.23212,12.481272 17.23212,10.272312 C17.23212,8.062632 19.02924,6.264792 21.23892,6.264792 C23.44788,6.264792 25.24572,8.062632 25.24572,10.272312 C25.24572,12.481272 23.44788,14.279112 21.23892,14.279112" id="Fill-9" fill="#1D1D1B"></path>
                <path d="M21.23892,7.952472 C19.95948,7.952472 18.91836,8.992872 18.91836,10.272312 C18.91836,11.551032 19.95948,12.591432 21.23892,12.591432 C22.51764,12.591432 23.55876,11.551032 23.55876,10.272312 C23.55876,8.992872 22.51764,7.952472 21.23892,7.952472 Z M21.23892,14.279112 C19.02924,14.279112 17.23212,12.481272 17.23212,10.272312 C17.23212,8.062632 19.02924,6.264792 21.23892,6.264792 C23.44788,6.264792 25.24572,8.062632 25.24572,10.272312 C25.24572,12.481272 23.44788,14.279112 21.23892,14.279112 Z" id="Stroke-11" stroke="#262626" stroke-width="0.72" stroke-linecap="round" stroke-linejoin="round"></path>
                <path d="M9.850392,19.341 C8.571672,19.341 7.530552,20.3814 7.530552,21.66084 C7.530552,22.93956 8.571672,23.97996 9.850392,23.97996 C11.129112,23.97996 12.170232,22.93956 12.170232,21.66084 C12.170232,20.3814 11.129112,19.341 9.850392,19.341 M9.850392,25.66764 C7.641432,25.66764 5.843592,23.8698 5.843592,21.66084 C5.843592,19.45116 7.641432,17.65332 9.850392,17.65332 C12.059352,17.65332 13.857192,19.45116 13.857192,21.66084 C13.857192,23.8698 12.059352,25.66764 9.850392,25.66764" id="Fill-13" fill="#1D1D1B"></path>
                <path d="M9.850392,19.341 C8.571672,19.341 7.530552,20.3814 7.530552,21.66084 C7.530552,22.93956 8.571672,23.97996 9.850392,23.97996 C11.129112,23.97996 12.170232,22.93956 12.170232,21.66084 C12.170232,20.3814 11.129112,19.341 9.850392,19.341 Z M9.850392,25.66764 C7.641432,25.66764 5.843592,23.8698 5.843592,21.66084 C5.843592,19.45116 7.641432,17.65332 9.850392,17.65332 C12.059352,17.65332 13.857192,19.45116 13.857192,21.66084 C13.857192,23.8698 12.059352,25.66764 9.850392,25.66764 Z" id="Stroke-15" stroke="#262626" stroke-width="0.72" stroke-linecap="round" stroke-linejoin="round"></path>
                <path d="M21.23892,19.341 C19.95948,19.341 18.91836,20.3814 18.91836,21.66084 C18.91836,22.93956 19.95948,23.97996 21.23892,23.97996 C22.51764,23.97996 23.55876,22.93956 23.55876,21.66084 C23.55876,20.3814 22.51764,19.341 21.23892,19.341 M21.23892,25.66764 C19.02924,25.66764 17.23212,23.8698 17.23212,21.66084 C17.23212,19.45116 19.02924,17.65332 21.23892,17.65332 C23.44788,17.65332 25.24572,19.45116 25.24572,21.66084 C25.24572,23.8698 23.44788,25.66764 21.23892,25.66764" id="Fill-17" fill="#1D1D1B"></path>
                <path d="M21.23892,19.341 C19.95948,19.341 18.91836,20.3814 18.91836,21.66084 C18.91836,22.93956 19.95948,23.97996 21.23892,23.97996 C22.51764,23.97996 23.55876,22.93956 23.55876,21.66084 C23.55876,20.3814 22.51764,19.341 21.23892,19.341 Z M21.23892,25.66764 C19.02924,25.66764 17.23212,23.8698 17.23212,21.66084 C17.23212,19.45116 19.02924,17.65332 21.23892,17.65332 C23.44788,17.65332 25.24572,19.45116 25.24572,21.66084 C25.24572,23.8698 23.44788,25.66764 21.23892,25.66764 Z" id="Stroke-19" stroke="#262626" stroke-width="0.72" stroke-linecap="round" stroke-linejoin="round"></path>
                <path d="M9.850392,30.728808 C8.571672,30.728808 7.530552,31.769208 7.530552,33.049368 C7.530552,34.328088 8.571672,35.368488 9.850392,35.368488 C11.129112,35.368488 12.170232,34.328088 12.170232,33.049368 C12.170232,31.769208 11.129112,30.728808 9.850392,30.728808 M9.850392,37.056168 C7.641432,37.056168 5.843592,35.258328 5.843592,33.049368 C5.843592,30.838968 7.641432,29.041848 9.850392,29.041848 C12.059352,29.041848 13.857192,30.838968 13.857192,33.049368 C13.857192,35.258328 12.059352,37.056168 9.850392,37.056168" id="Fill-21" fill="#1D1D1B"></path>
                <path d="M9.850392,30.728808 C8.571672,30.728808 7.530552,31.769208 7.530552,33.049368 C7.530552,34.328088 8.571672,35.368488 9.850392,35.368488 C11.129112,35.368488 12.170232,34.328088 12.170232,33.049368 C12.170232,31.769208 11.129112,30.728808 9.850392,30.728808 Z M9.850392,37.056168 C7.641432,37.056168 5.843592,35.258328 5.843592,33.049368 C5.843592,30.838968 7.641432,29.041848 9.850392,29.041848 C12.059352,29.041848 13.857192,30.838968 13.857192,33.049368 C13.857192,35.258328 12.059352,37.056168 9.850392,37.056168 Z" id="Stroke-23" stroke="#262626" stroke-width="0.72" stroke-linecap="round" stroke-linejoin="round"></path>
                <path d="M21.23892,30.728808 C19.95948,30.728808 18.91836,31.769208 18.91836,33.049368 C18.91836,34.328088 19.95948,35.368488 21.23892,35.368488 C22.51764,35.368488 23.55876,34.328088 23.55876,33.049368 C23.55876,31.769208 22.51764,30.728808 21.23892,30.728808 M21.23892,37.056168 C19.02924,37.056168 17.23212,35.258328 17.23212,33.049368 C17.23212,30.838968 19.02924,29.041848 21.23892,29.041848 C23.44788,29.041848 25.24572,30.838968 25.24572,33.049368 C25.24572,35.258328 23.44788,37.056168 21.23892,37.056168" id="Fill-25" fill="#1D1D1B"></path>
                <path d="M21.23892,30.728808 C19.95948,30.728808 18.91836,31.769208 18.91836,33.049368 C18.91836,34.328088 19.95948,35.368488 21.23892,35.368488 C22.51764,35.368488 23.55876,34.328088 23.55876,33.049368 C23.55876,31.769208 22.51764,30.728808 21.23892,30.728808 Z M21.23892,37.056168 C19.02924,37.056168 17.23212,35.258328 17.23212,33.049368 C17.23212,30.838968 19.02924,29.041848 21.23892,29.041848 C23.44788,29.041848 25.24572,30.838968 25.24572,33.049368 C25.24572,35.258328 23.44788,37.056168 21.23892,37.056168 Z" id="Stroke-27" stroke="#262626" stroke-width="0.72" stroke-linecap="round" stroke-linejoin="round"></path>
                <path d="M9.850392,42.117336 C8.571672,42.117336 7.530552,43.157736 7.530552,44.437896 C7.530552,45.716616 8.571672,46.757016 9.850392,46.757016 C11.129112,46.757016 12.170232,45.716616 12.170232,44.437896 C12.170232,43.157736 11.129112,42.117336 9.850392,42.117336 M9.850392,48.443976 C7.641432,48.443976 5.843592,46.646856 5.843592,44.437896 C5.843592,42.227496 7.641432,40.430376 9.850392,40.430376 C12.059352,40.430376 13.857192,42.227496 13.857192,44.437896 C13.857192,46.646856 12.059352,48.443976 9.850392,48.443976" id="Fill-29" fill="#1D1D1B"></path>
                <path d="M9.850392,42.117336 C8.571672,42.117336 7.530552,43.157736 7.530552,44.437896 C7.530552,45.716616 8.571672,46.757016 9.850392,46.757016 C11.129112,46.757016 12.170232,45.716616 12.170232,44.437896 C12.170232,43.157736 11.129112,42.117336 9.850392,42.117336 Z M9.850392,48.443976 C7.641432,48.443976 5.843592,46.646856 5.843592,44.437896 C5.843592,42.227496 7.641432,40.430376 9.850392,40.430376 C12.059352,40.430376 13.857192,42.227496 13.857192,44.437896 C13.857192,46.646856 12.059352,48.443976 9.850392,48.443976 Z" id="Stroke-31" stroke="#262626" stroke-width="0.72" stroke-linecap="round" stroke-linejoin="round"></path>
                <path d="M21.23892,42.117336 C19.95948,42.117336 18.91836,43.157736 18.91836,44.437896 C18.91836,45.716616 19.95948,46.757016 21.23892,46.757016 C22.51764,46.757016 23.55876,45.716616 23.55876,44.437896 C23.55876,43.157736 22.51764,42.117336 21.23892,42.117336 M21.23892,48.443976 C19.02924,48.443976 17.23212,46.646856 17.23212,44.437896 C17.23212,42.227496 19.02924,40.430376 21.23892,40.430376 C23.44788,40.430376 25.24572,42.227496 25.24572,44.437896 C25.24572,46.646856 23.44788,48.443976 21.23892,48.443976" id="Fill-33" fill="#1D1D1B"></path>
                <path d="M21.23892,42.117336 C19.95948,42.117336 18.91836,43.157736 18.91836,44.437896 C18.91836,45.716616 19.95948,46.757016 21.23892,46.757016 C22.51764,46.757016 23.55876,45.716616 23.55876,44.437896 C23.55876,43.157736 22.51764,42.117336 21.23892,42.117336 Z M21.23892,48.443976 C19.02924,48.443976 17.23212,46.646856 17.23212,44.437896 C17.23212,42.227496 19.02924,40.430376 21.23892,40.430376 C23.44788,40.430376 25.24572,42.227496 25.24572,44.437896 C25.24572,46.646856 23.44788,48.443976 21.23892,48.443976 Z" id="Stroke-35" stroke="#262626" stroke-width="0.72" stroke-linecap="round" stroke-linejoin="round"></path>
                <path d="M52.66224,52.662096 L30.72888,52.662096 L30.72888,32.326416 C30.72888,29.745216 31.78152,27.269856 33.6168,25.536816 C34.992,24.237216 35.82576,23.008896 36.10584,21.871296 L47.28528,21.871296 C47.56536,23.008896 48.39912,24.237936 49.77432,25.536816 C51.6096,27.269856 52.66224,29.745216 52.66224,32.326416 L52.66224,52.662096 Z M34.52544,15.122736 L48.8664,15.122736 L48.8664,20.184336 L48.02256,20.184336 L35.36856,20.184336 L34.52544,20.184336 L34.52544,15.122736 Z M50.93352,24.310656 C49.9968,23.425776 49.3632,22.589136 49.06512,21.871296 L49.70952,21.871296 C50.17536,21.871296 50.55336,21.494016 50.55336,21.027456 L50.55336,14.278896 C50.55336,13.813056 50.17536,13.435776 49.70952,13.435776 L33.6816,13.435776 C33.21576,13.435776 32.83848,13.813056 32.83848,14.278896 L32.83848,21.027456 C32.83848,21.494016 33.21576,21.871296 33.6816,21.871296 L34.326,21.871296 C34.02792,22.589136 33.39504,23.425776 32.4576,24.310656 C30.28752,26.361216 29.04192,29.282256 29.04192,32.326416 L29.04192,53.505936 C29.04192,53.971776 29.41992,54.349776 29.88504,54.349776 L53.50608,54.349776 C53.9712,54.349776 54.34992,53.971776 54.34992,53.505936 L54.34992,32.326416 C54.34992,29.282256 53.10432,26.361216 50.93352,24.310656 L50.93352,24.310656 Z" id="Fill-37" fill="#1D1D1B"></path>
                <path d="M52.66224,52.662096 L30.72888,52.662096 L30.72888,32.326416 C30.72888,29.745216 31.78152,27.269856 33.6168,25.536816 C34.992,24.237216 35.82576,23.008896 36.10584,21.871296 L47.28528,21.871296 C47.56536,23.008896 48.39912,24.237936 49.77432,25.536816 C51.6096,27.269856 52.66224,29.745216 52.66224,32.326416 L52.66224,52.662096 Z M34.52544,15.122736 L48.8664,15.122736 L48.8664,20.184336 L48.02256,20.184336 L35.36856,20.184336 L34.52544,20.184336 L34.52544,15.122736 Z M50.93352,24.310656 C49.9968,23.425776 49.3632,22.589136 49.06512,21.871296 L49.70952,21.871296 C50.17536,21.871296 50.55336,21.494016 50.55336,21.027456 L50.55336,14.278896 C50.55336,13.813056 50.17536,13.435776 49.70952,13.435776 L33.6816,13.435776 C33.21576,13.435776 32.83848,13.813056 32.83848,14.278896 L32.83848,21.027456 C32.83848,21.494016 33.21576,21.871296 33.6816,21.871296 L34.326,21.871296 C34.02792,22.589136 33.39504,23.425776 32.4576,24.310656 C30.28752,26.361216 29.04192,29.282256 29.04192,32.326416 L29.04192,53.505936 C29.04192,53.971776 29.41992,54.349776 29.88504,54.349776 L53.50608,54.349776 C53.9712,54.349776 54.34992,53.971776 54.34992,53.505936 L54.34992,32.326416 C54.34992,29.282256 53.10432,26.361216 50.93352,24.310656 Z" id="Stroke-39" stroke="#262626" stroke-width="0.72" stroke-linecap="round" stroke-linejoin="round"></path>
                <path d="M46.757448,49.287816 L42.539688,49.287816 L42.539688,44.226936 L46.757448,44.226936 C48.152088,44.226936 49.288248,45.361656 49.288248,46.757016 C49.288248,48.153096 48.152088,49.287816 46.757448,49.287816 M34.103448,46.757016 C34.103448,45.361656 35.238888,44.226936 36.634248,44.226936 L40.852008,44.226936 L40.852008,49.287816 L36.634248,49.287816 C35.238888,49.287816 34.103448,48.153096 34.103448,46.757016 M46.757448,42.539256 L36.634248,42.539256 C34.308648,42.539256 32.416488,44.431416 32.416488,46.757016 C32.416488,49.083336 34.308648,50.975496 36.634248,50.975496 L46.757448,50.975496 C49.083048,50.975496 50.975208,49.083336 50.975208,46.757016 C50.975208,44.431416 49.083048,42.539256 46.757448,42.539256" id="Fill-41" fill="#1D1D1B"></path>
                <path d="M46.757448,49.287816 L42.539688,49.287816 L42.539688,44.226936 L46.757448,44.226936 C48.152088,44.226936 49.288248,45.361656 49.288248,46.757016 C49.288248,48.153096 48.152088,49.287816 46.757448,49.287816 Z M34.103448,46.757016 C34.103448,45.361656 35.238888,44.226936 36.634248,44.226936 L40.852008,44.226936 L40.852008,49.287816 L36.634248,49.287816 C35.238888,49.287816 34.103448,48.153096 34.103448,46.757016 Z M46.757448,42.539256 L36.634248,42.539256 C34.308648,42.539256 32.416488,44.431416 32.416488,46.757016 C32.416488,49.083336 34.308648,50.975496 36.634248,50.975496 L46.757448,50.975496 C49.083048,50.975496 50.975208,49.083336 50.975208,46.757016 C50.975208,44.431416 49.083048,42.539256 46.757448,42.539256 Z" id="Stroke-43" stroke="#262626" stroke-width="0.72" stroke-linecap="round" stroke-linejoin="round"></path>
                <path d="M35.483544,34.627608 L38.466504,31.644648 L42.044904,35.223768 L39.062664,38.206728 C38.076264,39.193128 36.470664,39.193128 35.483544,38.206728 C34.497144,37.220328 34.497144,35.614008 35.483544,34.627608 L35.483544,34.627608 Z M42.641064,27.469368 C43.134984,26.976168 43.782984,26.729208 44.431704,26.729208 C45.078984,26.729208 45.727704,26.976168 46.220904,27.469368 C47.207304,28.456488 47.207304,30.061368 46.220904,31.048488 L43.238664,34.031448 L39.658824,30.451608 L42.641064,27.469368 Z M37.272744,40.633128 C38.352744,40.633128 39.432744,40.222008 40.255704,39.399768 L47.413224,32.241528 C49.058424,30.596328 49.058424,27.921528 47.413224,26.276328 C45.769464,24.631848 43.093224,24.631848 41.448744,26.276328 L34.290504,33.434568 C32.646744,35.079048 32.646744,37.755288 34.290504,39.399768 C35.112744,40.222008 36.192744,40.633128 37.272744,40.633128 L37.272744,40.633128 Z" id="Fill-45" fill="#1D1D1B"></path>
                <path d="M35.483544,34.627608 L38.466504,31.644648 L42.044904,35.223768 L39.062664,38.206728 C38.076264,39.193128 36.470664,39.193128 35.483544,38.206728 C34.497144,37.220328 34.497144,35.614008 35.483544,34.627608 Z M42.641064,27.469368 C43.134984,26.976168 43.782984,26.729208 44.431704,26.729208 C45.078984,26.729208 45.727704,26.976168 46.220904,27.469368 C47.207304,28.456488 47.207304,30.061368 46.220904,31.048488 L43.238664,34.031448 L39.658824,30.451608 L42.641064,27.469368 Z M37.272744,40.633128 C38.352744,40.633128 39.432744,40.222008 40.255704,39.399768 L47.413224,32.241528 C49.058424,30.596328 49.058424,27.921528 47.413224,26.276328 C45.769464,24.631848 43.093224,24.631848 41.448744,26.276328 L34.290504,33.434568 C32.646744,35.079048 32.646744,37.755288 34.290504,39.399768 C35.112744,40.222008 36.192744,40.633128 37.272744,40.633128 Z" id="Stroke-47" stroke="#262626" stroke-width="0.72" stroke-linecap="round" stroke-linejoin="round"></path>
            </g>
        </g>
    </g>
</svg>