<?xml version="1.0" encoding="UTF-8"?>
<svg width="45px" height="59px" viewBox="0 0 45 59" version="1.1" xmlns="http://www.w3.org/2000/svg" xmlns:xlink="http://www.w3.org/1999/xlink">
    <!-- Generator: sketchtool 64 (101010) - https://sketch.com -->
    <title>8F5D8204-A15B-4677-A7D8-55D7B0C78110@2x</title>
    <desc>Created with sketchtool.</desc>
    <defs>
        <polygon id="path-1" points="0.00024 7.59449892e-05 44.8 7.59449892e-05 44.8 58.24 0.00024 58.24"></polygon>
    </defs>
    <g id="Page-1" stroke="none" stroke-width="1" fill="none" fill-rule="evenodd">
        <g id="01-HOME-portail-V3-PICTOS" transform="translate(-1015.000000, -521.000000)">
            <g id="Bloc1" transform="translate(978.000000, 495.000000)">
                <g id="picto_microscope" transform="translate(37.000000, 26.000000)">
                    <mask id="mask-2" fill="white">
                        <use xlink:href="#path-1"></use>
                    </mask>
                    <g id="Clip-2"></g>
                    <path d="M29.12024,42.55928 C27.88024,42.55928 26.88024,43.56328 26.88024,44.79928 C26.88024,46.03768 27.88024,47.03848 29.12024,47.03848 C30.35864,47.03848 31.35784,46.03768 31.36024,44.79928 C31.35784,43.56328 30.35864,42.55928 29.12024,42.55928 L29.12024,42.55928 Z M2.23944,56.00088 L2.23944,54.87928 C2.24184,53.02568 3.74504,51.52248 5.59944,51.51848 L23.52024,51.51848 C23.81784,51.52008 24.10024,51.40248 24.31144,51.19048 C24.52264,50.97848 24.63864,50.69928 24.63864,50.39928 L24.63864,44.80008 C24.64344,42.32568 26.64424,40.32408 29.11944,40.31928 C31.59384,40.32408 33.59544,42.32568 33.60024,44.80008 L33.60024,50.39928 C33.59944,50.69448 33.71784,50.98328 33.92744,51.19288 C34.13704,51.40008 34.42504,51.52008 34.72024,51.51848 L36.95864,51.51848 C39.66824,51.52408 41.92424,53.44568 42.44584,56.00088 L2.23944,56.00088 Z M26.31544,19.20728 C26.63944,18.53128 26.83304,17.78568 26.86024,16.99288 C32.07304,19.49288 35.84104,25.43688 35.8394405,32.47848 C35.8394405,35.32808 35.21064,37.99208 34.12824,40.33128 C33.61144,39.75128 33.00104,39.25768 32.31224,38.88568 C33.12264,36.94408 33.59864,34.78008 33.59864,32.48008 C33.59384,26.62968 30.67464,21.52488 26.31544,19.20728 L26.31544,19.20728 Z M21.27944,20.15928 C19.42504,20.15528 17.92344,18.65288 17.91864,16.80088 C17.92344,14.94488 19.42504,13.44328 21.27944,13.44008 C23.13384,13.44328 24.63704,14.94488 24.63944,16.80088 C24.63704,18.65288 23.13384,20.15528 21.27944,20.15928 L21.27944,20.15928 Z M20.16024,29.12008 L11.19944,29.12008 L11.19944,8.95768 L20.16024,8.95768 L20.16024,11.31288 C17.60344,11.83208 15.68024,14.09048 15.68024,16.80088 C15.68024,19.50888 17.60344,21.76728 20.16024,22.28568 L20.16024,29.12008 Z M13.43784,35.84008 L17.92024,35.84008 L17.92024,31.35848 L13.43784,31.35848 L13.43784,35.84008 Z M13.43864,6.72088 L17.92024,6.72088 L17.92024,2.23848 L13.43864,2.23848 L13.43864,6.72088 Z M36.95864,49.28008 L35.83944,49.28008 L35.83944,44.80008 C35.83944,44.03688 35.70584,43.30648 35.47064,42.62168 C37.11544,39.68088 38.07784,36.20888 38.07784,32.47848 C38.07624,24.00248 33.18504,16.78328 26.28424,14.33448 C25.52904,12.80648 24.11624,11.66168 22.40024,11.31288 L22.40024,7.84008 C22.40024,7.54488 22.28024,7.25688 22.07064,7.04888 C21.86344,6.84008 21.57464,6.71928 21.27944,6.72008 L20.16024,6.72008 L20.16024,1.11848 C20.16024,0.81928 20.04264,0.53928 19.83224,0.32808 C19.61944,0.11688 19.33784,-0.00072 19.03864,7.59449892e-05 L12.31864,7.59449892e-05 C12.02504,-0.00072 11.73704,0.11928 11.52824,0.32808 C11.31944,0.53688 11.19944,0.82408 11.20024,1.11848 L11.20024,6.72008 L10.07864,6.72008 C9.78344,6.71928 9.49624,6.84008 9.28744,7.04888 C9.07864,7.25688 8.96104,7.54488 8.96104,7.84008 L8.96104,30.24088 C8.96104,30.54008 9.07624,30.82088 9.28744,31.03208 C9.50024,31.24248 9.78104,31.35848 10.07864,31.35848 L11.20024,31.35848 L11.20024,36.95928 C11.19944,37.25928 11.31624,37.54088 11.52744,37.75128 C11.73864,37.96248 12.02024,38.07768 12.31944,38.07768 L19.03864,38.07768 C19.33784,38.07768 19.61944,37.96248 19.83144,37.75128 C20.04424,37.54088 20.15944,37.25928 20.15944,36.95928 L20.15944,31.35848 L21.27944,31.35848 C21.57864,31.35848 21.85784,31.24248 22.07064,31.03208 C22.28264,30.82088 22.40024,30.54008 22.40024,30.24088 L22.40024,22.28568 C23.36424,22.08968 24.22264,21.62968 24.93704,21.00808 C28.61064,22.76408 31.36424,27.20488 31.36024,32.48008 C31.36024,34.54488 30.91944,36.47048 30.18424,38.17208 C29.83704,38.11608 29.48264,38.07928 29.11944,38.07928 C26.19464,38.07928 23.71464,39.95128 22.79064,42.56008 L8.95864,42.56008 C8.34104,42.55928 7.83944,43.06168 7.83944,43.67848 C7.83944,44.29928 8.34104,44.80088 8.95864,44.79928 L22.40024,44.79928 L22.40024,49.28008 L5.59944,49.28008 C2.50584,49.28008 0.00024,51.78648 0.00024,54.87928 L0.00024,57.11928 C0.00024,57.41928 0.11544,57.69928 0.32744,57.91048 C0.53864,58.12248 0.82104,58.23848 1.11864,58.24008 L43.67864,58.24008 C43.97864,58.23848 44.25944,58.12248 44.46984,57.91048 C44.68184,57.69928 44.80024,57.41928 44.80024,57.11928 C44.79784,52.78888 41.28824,49.28008 36.95864,49.28008 L36.95864,49.28008 Z" id="Fill-1" fill="#1A1A1A" mask="url(#mask-2)"></path>
                </g>
            </g>
        </g>
    </g>
</svg>