<?xml version="1.0" encoding="UTF-8"?>
<svg width="40px" height="53px" viewBox="0 0 40 53" version="1.1" xmlns="http://www.w3.org/2000/svg" xmlns:xlink="http://www.w3.org/1999/xlink">
    <!-- Generator: sketchtool 64 (101010) - https://sketch.com -->
    <title>E2CC9747-002D-46AF-A8D5-4C8C584801D6@2x</title>
    <desc>Created with sketchtool.</desc>
    <g id="Page-1" stroke="none" stroke-width="1" fill="none" fill-rule="evenodd">
        <g id="Set-Picto" transform="translate(-71.000000, -36.000000)">
            <g id="Picto-patient" transform="translate(72.000000, 36.000000)">
                <path d="M29.2886399,47.2806653 C27.3955041,49.1738011 22.5663034,50.8971738 19.1557369,50.8971738 C15.8669266,50.8971738 10.8477861,49.1056176 9.02561688,47.2841441 C8.50380438,46.7108461 6.90149213,42.3464063 6.18626113,39.1536096 C6.18417388,39.1389988 6.18486963,39.1236923 6.18208663,39.1090816 C6.16190988,39.007502 6.13338413,38.8871373 6.10068387,38.7577278 C5.93579113,37.9569196 5.83421163,37.2465588 5.83421163,36.7191803 C5.83421163,34.4635588 7.49914138,31.6116795 9.13206663,31.0669073 C9.80276963,30.8435716 10.5834011,30.5360501 11.4106479,30.2111348 C13.7894171,29.2746553 16.7505291,28.1099698 19.1557369,28.1099698 C21.3146491,28.1099698 23.6906354,29.0339258 25.9880019,29.9279646 C27.1262489,30.3697658 28.2011826,30.7886073 29.2128031,31.0773435 C30.8492071,31.5448876 32.5885821,34.674371 32.5357051,37.0566191 C32.5210944,37.7252348 32.3631591,38.6777166 32.1196466,39.7366481 C32.0236331,40.0921763 31.9505794,40.3836956 31.9081386,40.5958993 C31.9074429,40.6000738 31.9074429,40.6056398 31.9067471,40.6105101 C31.1873416,43.3914228 30.0177859,46.5515193 29.2886399,47.2806653 M3.05329888,28.2999095 C4.28408062,29.077758 5.83282012,29.8361255 7.10325963,30.410815 C6.04363237,31.312507 5.19342588,32.6768728 4.69457312,34.0920283 C4.16023713,32.3470873 3.55632613,30.3071483 3.05329888,28.2999095 M19.1557369,1.9789913 C32.6414591,1.9789913 36.0033231,11.6680058 36.3066701,20.3607063 C35.1712061,18.3590335 33.5368894,16.2989178 32.1008614,15.1022278 C29.4611859,12.9029621 25.2073704,11.1879383 25.0271711,11.1155803 C24.6994729,10.9840836 24.3251594,11.0794013 24.0990406,11.3500481 C23.8729219,11.6206948 23.8464834,12.0061403 24.0329444,12.3046171 C24.0399019,12.3157491 24.7126921,13.3955531 25.2525941,14.7460038 C25.6971784,15.8571166 25.8940756,16.9807528 25.9817401,17.7502523 C24.2597589,17.4427308 20.7371766,16.7428063 18.6200094,15.8355483 C15.9511124,14.6917353 12.5106286,10.9332938 12.4758411,10.8957233 C12.1766686,10.5666336 11.6701626,10.5381078 11.3362026,10.8303228 C11.1907909,10.9576451 7.77257113,13.9660681 6.43116512,16.6488801 C5.45154912,18.6088078 4.78362912,21.3514543 4.45314788,22.9252408 C3.57024112,22.2420143 2.47373912,21.1740381 2.02706762,19.9731736 C2.38537888,13.4449513 5.02714162,1.9789913 19.1557369,1.9789913 M8.90386063,29.4193713 C6.00814913,28.1802406 2.81604813,26.4721743 2.50365638,25.8042543 C2.49391588,25.7805988 2.48069663,25.7597263 2.46956462,25.7381581 C2.26988437,24.7376696 2.12238538,23.7914496 2.04376563,22.9356771 C3.21749588,24.1922016 4.52898462,24.9547436 4.61456188,25.0034461 C4.84555088,25.1363343 5.12663388,25.1467706 5.36805913,25.0326676 C5.60878862,24.9185646 5.77855162,24.6938373 5.82238388,24.4308438 C5.83003713,24.3877073 6.57796837,20.0016993 7.89015288,17.3780261 C8.78071288,15.5969061 10.8296966,13.5374861 11.8336639,12.5877873 C12.9788684,13.7622133 15.6491569,16.3364883 17.9778321,17.3341938 C21.0363491,18.6456826 26.5112059,19.4972806 26.7421949,19.5327638 C26.9780541,19.5682471 27.2160006,19.5007593 27.3968956,19.3463028 C27.5777906,19.1911506 27.6814574,18.9650318 27.6814574,18.7270853 C27.6814574,18.6331591 27.6717169,16.4018888 26.7665461,14.1400056 C26.6900136,13.9493701 26.6113939,13.7629091 26.5320784,13.5834056 C27.9305359,14.2680236 29.7422689,15.2601631 31.0565406,16.3552736 C33.3650391,18.2776308 36.0457639,22.5189228 36.0889004,24.3153493 C36.0889004,24.3250898 36.0916834,24.3334388 36.0923791,24.3424836 C36.0478511,24.6374816 35.9977571,24.9408286 35.9420971,25.2511331 C35.9316609,25.2713098 35.9184416,25.2900951 35.9107884,25.3116633 C35.5921349,25.9844536 32.3276759,27.9395111 29.3651724,29.4172841 C28.5045296,29.1522033 27.5680501,28.7925006 26.5786936,28.4077508 C24.2548886,27.5039716 21.6207791,26.4798276 19.1557369,26.4798276 C16.4402246,26.4798276 13.3204816,27.7064348 10.8129986,28.6930083 C10.1242061,28.9643508 9.47367988,29.2189953 8.90386063,29.4193713 M33.6962161,34.3195385 C33.1799696,32.7721905 32.2734074,31.2714578 31.1525541,30.3398486 C32.4723919,29.6552305 34.1171449,28.7458853 35.4014994,27.858804 C34.9047339,30.0149333 34.2792546,32.2935145 33.6962161,34.3195385 M34.4552794,37.5318163 C35.7674639,33.0901483 37.9632509,25.6546681 37.9632509,21.7257678 C37.9632509,13.7420366 35.5197769,0.3481533 19.1557369,0.3481533 C12.4667964,0.3481533 7.43095787,2.7317928 4.18737137,7.43297555 C1.01335987,12.0311873 0.347527125,17.7432948 0.347527125,21.7257678 C0.347527125,25.6087486 2.31997837,31.9539886 3.62520537,36.1521441 C4.09901113,37.6744451 4.47262887,38.8767011 4.58325312,39.4291266 C4.58464463,39.4381713 4.58881913,39.4451288 4.59090638,39.4541736 C5.35066538,42.9085723 7.03646762,47.6007103 7.86928037,48.4335231 C10.0121904,50.5764331 15.3910336,52.5280118 19.1557369,52.5280118 C22.5572586,52.5280118 28.0286366,50.8463841 30.4414976,48.4335231 C31.4044156,47.4706051 32.6852914,44.0579513 33.4673144,41.0516156 C33.4833166,41.0077833 33.4979274,40.9625596 33.5062764,40.9159443 C33.5167126,40.8665461 33.5313234,40.8046243 33.5452384,40.7433983 C33.5681981,40.6529508 33.5904621,40.5618076 33.6127261,40.4713601 C33.7790104,39.8208338 34.0858361,38.7827748 34.4552794,37.5318163" id="Fill-1" fill="#1D1D1B"></path>
                <path d="M29.2886399,47.2806653 C27.3955041,49.1738011 22.5663034,50.8971738 19.1557369,50.8971738 C15.8669266,50.8971738 10.8477861,49.1056176 9.02561688,47.2841441 C8.50380438,46.7108461 6.90149213,42.3464063 6.18626113,39.1536096 C6.18417388,39.1389988 6.18486963,39.1236923 6.18208663,39.1090816 C6.16190988,39.007502 6.13338413,38.8871373 6.10068387,38.7577278 C5.93579113,37.9569196 5.83421163,37.2465588 5.83421163,36.7191803 C5.83421163,34.4635588 7.49914138,31.6116795 9.13206663,31.0669073 C9.80276963,30.8435716 10.5834011,30.5360501 11.4106479,30.2111348 C13.7894171,29.2746553 16.7505291,28.1099698 19.1557369,28.1099698 C21.3146491,28.1099698 23.6906354,29.0339258 25.9880019,29.9279646 C27.1262489,30.3697658 28.2011826,30.7886073 29.2128031,31.0773435 C30.8492071,31.5448876 32.5885821,34.674371 32.5357051,37.0566191 C32.5210944,37.7252348 32.3631591,38.6777166 32.1196466,39.7366481 C32.0236331,40.0921763 31.9505794,40.3836956 31.9081386,40.5958993 C31.9074429,40.6000738 31.9074429,40.6056398 31.9067471,40.6105101 C31.1873416,43.3914228 30.0177859,46.5515193 29.2886399,47.2806653 Z M3.05329888,28.2999095 C4.28408062,29.077758 5.83282012,29.8361255 7.10325963,30.410815 C6.04363237,31.312507 5.19342588,32.6768728 4.69457312,34.0920283 C4.16023713,32.3470873 3.55632613,30.3071483 3.05329888,28.2999095 Z M19.1557369,1.9789913 C32.6414591,1.9789913 36.0033231,11.6680058 36.3066701,20.3607063 C35.1712061,18.3590335 33.5368894,16.2989178 32.1008614,15.1022278 C29.4611859,12.9029621 25.2073704,11.1879383 25.0271711,11.1155803 C24.6994729,10.9840836 24.3251594,11.0794013 24.0990406,11.3500481 C23.8729219,11.6206948 23.8464834,12.0061403 24.0329444,12.3046171 C24.0399019,12.3157491 24.7126921,13.3955531 25.2525941,14.7460038 C25.6971784,15.8571166 25.8940756,16.9807528 25.9817401,17.7502523 C24.2597589,17.4427308 20.7371766,16.7428063 18.6200094,15.8355483 C15.9511124,14.6917353 12.5106286,10.9332938 12.4758411,10.8957233 C12.1766686,10.5666336 11.6701626,10.5381078 11.3362026,10.8303228 C11.1907909,10.9576451 7.77257113,13.9660681 6.43116512,16.6488801 C5.45154912,18.6088078 4.78362912,21.3514543 4.45314788,22.9252408 C3.57024112,22.2420143 2.47373912,21.1740381 2.02706762,19.9731736 C2.38537888,13.4449513 5.02714162,1.9789913 19.1557369,1.9789913 Z M8.90386063,29.4193713 C6.00814913,28.1802406 2.81604813,26.4721743 2.50365638,25.8042543 C2.49391588,25.7805988 2.48069663,25.7597263 2.46956462,25.7381581 C2.26988437,24.7376696 2.12238538,23.7914496 2.04376563,22.9356771 C3.21749588,24.1922016 4.52898462,24.9547436 4.61456188,25.0034461 C4.84555088,25.1363343 5.12663388,25.1467706 5.36805913,25.0326676 C5.60878862,24.9185646 5.77855162,24.6938373 5.82238388,24.4308438 C5.83003713,24.3877073 6.57796837,20.0016993 7.89015288,17.3780261 C8.78071288,15.5969061 10.8296966,13.5374861 11.8336639,12.5877873 C12.9788684,13.7622133 15.6491569,16.3364883 17.9778321,17.3341938 C21.0363491,18.6456826 26.5112059,19.4972806 26.7421949,19.5327638 C26.9780541,19.5682471 27.2160006,19.5007593 27.3968956,19.3463028 C27.5777906,19.1911506 27.6814574,18.9650318 27.6814574,18.7270853 C27.6814574,18.6331591 27.6717169,16.4018888 26.7665461,14.1400056 C26.6900136,13.9493701 26.6113939,13.7629091 26.5320784,13.5834056 C27.9305359,14.2680236 29.7422689,15.2601631 31.0565406,16.3552736 C33.3650391,18.2776308 36.0457639,22.5189228 36.0889004,24.3153493 C36.0889004,24.3250898 36.0916834,24.3334388 36.0923791,24.3424836 C36.0478511,24.6374816 35.9977571,24.9408286 35.9420971,25.2511331 C35.9316609,25.2713098 35.9184416,25.2900951 35.9107884,25.3116633 C35.5921349,25.9844536 32.3276759,27.9395111 29.3651724,29.4172841 C28.5045296,29.1522033 27.5680501,28.7925006 26.5786936,28.4077508 C24.2548886,27.5039716 21.6207791,26.4798276 19.1557369,26.4798276 C16.4402246,26.4798276 13.3204816,27.7064348 10.8129986,28.6930083 C10.1242061,28.9643508 9.47367988,29.2189953 8.90386063,29.4193713 Z M33.6962161,34.3195385 C33.1799696,32.7721905 32.2734074,31.2714578 31.1525541,30.3398486 C32.4723919,29.6552305 34.1171449,28.7458853 35.4014994,27.858804 C34.9047339,30.0149333 34.2792546,32.2935145 33.6962161,34.3195385 Z M34.4552794,37.5318163 C35.7674639,33.0901483 37.9632509,25.6546681 37.9632509,21.7257678 C37.9632509,13.7420366 35.5197769,0.3481533 19.1557369,0.3481533 C12.4667964,0.3481533 7.43095787,2.7317928 4.18737137,7.43297555 C1.01335987,12.0311873 0.347527125,17.7432948 0.347527125,21.7257678 C0.347527125,25.6087486 2.31997837,31.9539886 3.62520537,36.1521441 C4.09901113,37.6744451 4.47262887,38.8767011 4.58325312,39.4291266 C4.58464463,39.4381713 4.58881913,39.4451288 4.59090638,39.4541736 C5.35066538,42.9085723 7.03646762,47.6007103 7.86928037,48.4335231 C10.0121904,50.5764331 15.3910336,52.5280118 19.1557369,52.5280118 C22.5572586,52.5280118 28.0286366,50.8463841 30.4414976,48.4335231 C31.4044156,47.4706051 32.6852914,44.0579513 33.4673144,41.0516156 C33.4833166,41.0077833 33.4979274,40.9625596 33.5062764,40.9159443 C33.5167126,40.8665461 33.5313234,40.8046243 33.5452384,40.7433983 C33.5681981,40.6529508 33.5904621,40.5618076 33.6127261,40.4713601 C33.7790104,39.8208338 34.0858361,38.7827748 34.4552794,37.5318163 Z" id="Stroke-3" stroke="#262626" stroke-width="0.69575" stroke-linecap="round" stroke-linejoin="round"></path>
                <path d="M23.0744096,25.8822479 C23.1912956,25.9406909 23.3165306,25.9685209 23.4382869,25.9685209 C23.7374594,25.9685209 24.0254999,25.8036281 24.1681286,25.5176749 C24.1743904,25.5051514 24.8186549,24.2541929 26.4376651,24.2541929 C28.1290334,24.2541929 29.2053586,25.6317779 29.2123161,25.6415184 C29.4829629,26.0026126 29.9943391,26.0749706 30.3540419,25.8057154 C30.7137446,25.5350686 30.7874941,25.0243881 30.5168474,24.6639896 C30.4542299,24.5804996 28.9583674,22.6233549 26.4376651,22.6233549 C23.8223409,22.6233549 22.7543646,24.7001686 22.7105324,24.7885289 C22.5087649,25.1906724 22.6722661,25.6804804 23.0744096,25.8822479" id="Fill-5" fill="#1D1D1B"></path>
                <path d="M23.0744096,25.8822479 C23.1912956,25.9406909 23.3165306,25.9685209 23.4382869,25.9685209 C23.7374594,25.9685209 24.0254999,25.8036281 24.1681286,25.5176749 C24.1743904,25.5051514 24.8186549,24.2541929 26.4376651,24.2541929 C28.1290334,24.2541929 29.2053586,25.6317779 29.2123161,25.6415184 C29.4829629,26.0026126 29.9943391,26.0749706 30.3540419,25.8057154 C30.7137446,25.5350686 30.7874941,25.0243881 30.5168474,24.6639896 C30.4542299,24.5804996 28.9583674,22.6233549 26.4376651,22.6233549 C23.8223409,22.6233549 22.7543646,24.7001686 22.7105324,24.7885289 C22.5087649,25.1906724 22.6722661,25.6804804 23.0744096,25.8822479 Z" id="Stroke-7" stroke="#262626" stroke-width="0.69575" stroke-linecap="round" stroke-linejoin="round"></path>
                <path d="M14.1458499,25.5235192 C14.2891743,25.8052979 14.5751276,25.9687992 14.8722129,25.9687992 C14.9953606,25.9687992 15.1192041,25.9409692 15.2360901,25.8825262 C15.6389294,25.6807587 15.8024306,25.1902549 15.6006631,24.7881114 C15.5561351,24.6997512 14.4881589,22.6236332 11.8728346,22.6236332 C9.35213235,22.6236332 7.85626985,24.5807779 7.79365235,24.6642679 C7.5230056,25.0239707 7.5967551,25.5353469 7.95645785,25.8052979 C8.31685635,26.0759447 8.82753685,26.0021952 9.0981836,25.6417967 C9.10861985,25.6278817 10.1863366,24.2544712 11.8728346,24.2544712 C13.4521871,24.2544712 14.1110624,25.4595102 14.1458499,25.5235192" id="Fill-9" fill="#1D1D1B"></path>
                <path d="M14.1458499,25.5235192 C14.2891743,25.8052979 14.5751276,25.9687992 14.8722129,25.9687992 C14.9953606,25.9687992 15.1192041,25.9409692 15.2360901,25.8825262 C15.6389294,25.6807587 15.8024306,25.1902549 15.6006631,24.7881114 C15.5561351,24.6997512 14.4881589,22.6236332 11.8728346,22.6236332 C9.35213235,22.6236332 7.85626985,24.5807779 7.79365235,24.6642679 C7.5230056,25.0239707 7.5967551,25.5353469 7.95645785,25.8052979 C8.31685635,26.0759447 8.82753685,26.0021952 9.0981836,25.6417967 C9.10861985,25.6278817 10.1863366,24.2544712 11.8728346,24.2544712 C13.4521871,24.2544712 14.1110624,25.4595102 14.1458499,25.5235192 Z" id="Stroke-11" stroke="#262626" stroke-width="0.69575" stroke-linecap="round" stroke-linejoin="round"></path>
                <path d="M11.8731129,25.6206459 C11.4229627,25.6206459 11.0556066,25.9873061 11.0556066,26.4381521 C11.0556066,26.8883024 11.4229627,27.2556584 11.8731129,27.2556584 C12.3225674,27.2556584 12.6906191,26.8883024 12.6906191,26.4381521 C12.6906191,25.9873061 12.3225674,25.6206459 11.8731129,25.6206459" id="Fill-13" fill="#1D1D1B"></path>
                <path d="M11.8731129,25.6206459 C11.4229627,25.6206459 11.0556066,25.9873061 11.0556066,26.4381521 C11.0556066,26.8883024 11.4229627,27.2556584 11.8731129,27.2556584 C12.3225674,27.2556584 12.6906191,26.8883024 12.6906191,26.4381521 C12.6906191,25.9873061 12.3225674,25.6206459 11.8731129,25.6206459 Z" id="Stroke-15" stroke="#262626" stroke-width="0.69575" stroke-linecap="round" stroke-linejoin="round"></path>
                <path d="M26.4376651,25.6206459 C25.9882106,25.6206459 25.6201589,25.9873061 25.6201589,26.4381521 C25.6201589,26.8883024 25.9882106,27.2556584 26.4376651,27.2556584 C26.8878154,27.2556584 27.2558671,26.8883024 27.2558671,26.4381521 C27.2558671,25.9873061 26.8878154,25.6206459 26.4376651,25.6206459" id="Fill-17" fill="#1D1D1B"></path>
                <path d="M26.4376651,25.6206459 C25.9882106,25.6206459 25.6201589,25.9873061 25.6201589,26.4381521 C25.6201589,26.8883024 25.9882106,27.2556584 26.4376651,27.2556584 C26.8878154,27.2556584 27.2558671,26.8883024 27.2558671,26.4381521 C27.2558671,25.9873061 26.8878154,25.6206459 26.4376651,25.6206459 Z" id="Stroke-19" stroke="#262626" stroke-width="0.69575" stroke-linecap="round" stroke-linejoin="round"></path>
                <path d="M21.8718057,34.7924398 C21.6832575,34.7583481 20.0071957,34.4584798 19.1555977,34.4584798 C18.303304,34.4584798 16.6272422,34.7583481 16.438694,34.7924398 C15.996197,34.8731468 15.7025905,35.2975543 15.7826017,35.7400513 C15.8549597,36.1345416 16.1979645,36.4100586 16.5841057,36.4100586 C16.6328082,36.4100586 16.6815107,36.4058841 16.730909,36.3968393 C17.2026275,36.3112621 18.556557,36.0886221 19.1555977,36.0886221 C19.753247,36.0886221 21.1078722,36.3112621 21.5802865,36.3968393 C22.021392,36.4775463 22.447191,36.1832441 22.527898,35.7400513 C22.608605,35.2975543 22.3149985,34.8731468 21.8718057,34.7924398" id="Fill-21" fill="#1D1D1B"></path>
                <path d="M21.8718057,34.7924398 C21.6832575,34.7583481 20.0071957,34.4584798 19.1555977,34.4584798 C18.303304,34.4584798 16.6272422,34.7583481 16.438694,34.7924398 C15.996197,34.8731468 15.7025905,35.2975543 15.7826017,35.7400513 C15.8549597,36.1345416 16.1979645,36.4100586 16.5841057,36.4100586 C16.6328082,36.4100586 16.6815107,36.4058841 16.730909,36.3968393 C17.2026275,36.3112621 18.556557,36.0886221 19.1555977,36.0886221 C19.753247,36.0886221 21.1078722,36.3112621 21.5802865,36.3968393 C22.021392,36.4775463 22.447191,36.1832441 22.527898,35.7400513 C22.608605,35.2975543 22.3149985,34.8731468 21.8718057,34.7924398 Z" id="Stroke-23" stroke="#262626" stroke-width="0.69575" stroke-linecap="round" stroke-linejoin="round"></path>
            </g>
        </g>
    </g>
</svg>