<?xml version="1.0" encoding="UTF-8"?>
<svg width="39px" height="50px" viewBox="0 0 39 50" version="1.1" xmlns="http://www.w3.org/2000/svg" xmlns:xlink="http://www.w3.org/1999/xlink">
    <!-- Generator: sketchtool 64 (101010) - https://sketch.com -->
    <title>E80F920C-3FCE-41BB-96FF-C77BFFF49522@2x</title>
    <desc>Created with sketchtool.</desc>
    <defs>
        <polygon id="path-1" points="0 0.000203728993 38.079524 0.000203728993 38.079524 49.504 0 49.504"></polygon>
    </defs>
    <g id="Page-1" stroke="none" stroke-width="1" fill="none" fill-rule="evenodd">
        <g id="Set-Picto" transform="translate(-157.000000, -37.000000)">
            <g id="Picto_praticien" transform="translate(157.000000, 37.000000)">
                <mask id="mask-2" fill="white">
                    <use xlink:href="#path-1"></use>
                </mask>
                <g id="Clip-2"></g>
                <path d="M11.424204,11.422844 L26.656204,11.422844 L26.656204,14.280204 C26.648724,18.487364 23.241244,21.888724 19.040204,21.896204 C14.837804,21.888724 11.432364,18.487364 11.424204,14.280204 L11.424204,11.422844 Z M11.424204,2.854844 C11.424204,2.330564 11.851244,1.904204 12.375524,1.902844 L25.702844,1.902844 C26.229164,1.904204 26.654164,2.330564 26.656204,2.854844 L26.656204,9.520204 L11.424204,9.520204 L11.424204,2.854844 Z M19.040204,23.798844 C24.293884,23.798844 28.558844,19.541364 28.558844,14.280204 L28.558844,2.854844 C28.558844,1.278604 27.281804,-0.000476 25.702844,0.000203728993 L12.375524,0.000203728993 C10.798604,-0.000476 9.519524,1.278604 9.519524,2.854844 L9.519524,14.280204 C9.519524,19.541364 13.785164,23.798844 19.040204,23.798844 L19.040204,23.798844 Z M27.608884,34.272204 L23.800204,34.272204 C23.274564,34.272204 22.848204,34.697884 22.848204,35.224204 C22.848204,35.750524 23.274564,36.174844 23.800204,36.174844 L27.608884,36.174844 C28.133164,36.174844 28.559524,35.750524 28.559524,35.224204 C28.559524,34.697884 28.133164,34.272204 27.608884,34.272204 L27.608884,34.272204 Z M20.944884,4.760204 L19.991524,4.760204 L19.991524,3.808884 C19.991524,3.280524 19.567204,2.856204 19.040204,2.856204 C18.513204,2.856204 18.088884,3.280524 18.088884,3.808884 L18.088884,4.760204 L17.134844,4.760204 C16.609204,4.758844 16.184204,5.185204 16.184204,5.711524 C16.184204,6.237164 16.609204,6.664204 17.134844,6.662844 L18.088884,6.662844 L18.088884,7.615524 C18.088884,8.141164 18.513204,8.567524 19.040204,8.567524 C19.567204,8.567524 19.991524,8.141164 19.991524,7.615524 L19.991524,6.662844 L20.944884,6.662844 C21.468484,6.664204 21.894844,6.237164 21.894844,5.711524 C21.894844,5.185204 21.468484,4.758844 20.944884,4.760204 L20.944884,4.760204 Z M36.1755249,47.600204 L32.368204,47.600204 L32.368204,33.320884 C32.368884,32.793204 31.941164,32.367524 31.415524,32.367524 C30.890564,32.367524 30.464204,32.793204 30.464204,33.320884 L30.464204,47.600204 L19.991524,47.600204 L19.991524,32.762604 L27.864564,24.888884 L32.466124,26.439964 C34.632604,27.199524 36.176884,29.457124 36.1755249,32.029564 L36.1755249,47.600204 Z M18.088204,47.600204 L7.615524,47.600204 L7.615524,33.320884 C7.615524,32.793204 7.189844,32.367524 6.662844,32.367524 C6.137884,32.367524 5.711524,32.793204 5.712204,33.320884 L5.712204,47.600204 L1.9028431,47.600204 L1.9028431,32.029564 C1.901484,29.457124 3.447804,27.199524 5.627884,26.433844 L10.215844,24.888884 L18.088204,32.762604 L18.088204,47.600204 Z M33.087644,24.639324 L27.911484,22.896484 C27.570124,22.781564 27.189324,22.871324 26.935004,23.127004 L19.039524,31.019764 L11.145404,23.127004 C10.889724,22.871324 10.510284,22.781564 10.166884,22.896484 L5.006364,24.635244 C1.979004,25.713724 0.000204,28.705724 -0.000489170435,32.029564 L-0.000489170435,48.551524 C-0.001836,48.801764 0.102204,49.047244 0.277644,49.225404 C0.455124,49.403564 0.699924,49.502844 0.952204,49.504204 L37.128884,49.504204 C37.382524,49.502844 37.620524,49.404924 37.800044,49.225404 C37.980244,49.045884 38.079524,48.805844 38.079524,48.551524 L38.079524,32.029564 C38.077484,28.705724 36.099364,25.713724 33.087644,24.639324 L33.087644,24.639324 Z" id="Fill-1" fill="#1A1A1A" mask="url(#mask-2)"></path>
            </g>
        </g>
    </g>
</svg>