<?xml version="1.0" encoding="UTF-8"?>
<svg width="62px" height="55px" viewBox="0 0 62 55" version="1.1" xmlns="http://www.w3.org/2000/svg" xmlns:xlink="http://www.w3.org/1999/xlink">
    <!-- Generator: sketchtool 64 (101010) - https://sketch.com -->
    <title>52C430BF-7DA9-499F-A45A-3ABAAAE98F46@2x</title>
    <desc>Created with sketchtool.</desc>
    <defs>
        <polygon id="path-1" points="0.000425 0.000793867925 61.88 0.000793867925 61.88 54.3357608 0.000425 54.3357608"></polygon>
    </defs>
    <g id="Page-1" stroke="none" stroke-width="1" fill="none" fill-rule="evenodd">
        <g id="01-HOME-portail-V3-PICTOS" transform="translate(-73.000000, -525.000000)">
            <g id="Bloc1" transform="translate(38.000000, 495.000000)">
                <g id="Group-3" transform="translate(35.000000, 30.000000)">
                    <mask id="mask-2" fill="white">
                        <use xlink:href="#path-1"></use>
                    </mask>
                    <g id="Clip-2"></g>
                    <path d="M33.319575,19.7584024 L27.369575,19.7584024 C27.055075,19.7566382 26.749925,19.8880675 26.528075,20.1209354 C26.306225,20.350275 26.180425,20.6669401 26.180425,20.9915439 L26.180425,27.1678363 L23.800425,27.1678363 L23.800425,20.9915439 C23.800425,20.6616476 23.675475,20.3529212 23.451925,20.1209354 C23.225825,19.8863033 22.926625,19.7566382 22.608725,19.7584024 L16.659575,19.7584024 L16.659575,17.2859448 L22.608725,17.2859448 C22.926625,17.2859448 23.225825,17.1606901 23.451925,16.926058 C23.675475,16.6931901 23.800425,16.3835816 23.800425,16.0536854 L23.800425,9.87915708 L26.180425,9.87915708 L26.180425,16.0536854 C26.180425,16.3835816 26.301975,16.6931901 26.528075,16.926058 C26.751625,17.1606901 27.049975,17.2868269 27.369575,17.2859448 L33.319575,17.2859448 L33.319575,19.7584024 Z M34.509575,14.8187797 L28.555325,14.8187797 L28.558725,8.64425142 C28.558725,8.31435519 28.434625,8.00562877 28.210225,7.77011462 C27.987525,7.53812877 27.685775,7.40934575 27.369575,7.40934575 L22.608725,7.40934575 C22.295925,7.40934575 21.988225,7.540775 21.766375,7.77011462 C21.545375,7.99945425 21.418725,8.31700142 21.419575,8.64425142 L21.419575,14.8187797 L15.469575,14.8187797 C15.155925,14.8178976 14.848225,14.950209 14.628075,15.1795486 C14.405375,15.4088882 14.278725,15.7290816 14.2804078,16.0536854 L14.2804078,20.9915439 C14.278725,21.3223222 14.402825,21.6319307 14.628075,21.8665627 C14.852475,22.0985486 15.151675,22.2282137 15.469575,22.2282137 L21.419575,22.2282137 L21.419575,28.4009778 C21.418725,28.7291099 21.545375,29.045775 21.766375,29.2751146 C21.988225,29.5053363 22.295925,29.6367656 22.608725,29.6367656 L27.369575,29.6367656 C27.685775,29.6367656 27.987525,29.5079825 28.210225,29.2751146 C28.434625,29.0404825 28.558725,28.7317561 28.558725,28.4009778 L28.558725,22.2282137 L34.509575,22.2282137 C34.825775,22.2282137 35.125825,22.0985486 35.350225,21.8665627 C35.575475,21.6319307 35.700425,21.3223222 35.700425,20.9915439 L35.700425,16.0536854 C35.700425,15.7290816 35.570375,15.4088882 35.350225,15.1795486 C35.129225,14.950209 34.824075,14.8178976 34.509575,14.8187797 L34.509575,14.8187797 Z M59.500425,39.5168929 C59.497025,40.8796995 58.431975,41.984058 57.118725,41.9867042 L53.548725,41.9867042 C53.234225,41.9867042 52.928225,42.1190156 52.706375,42.3483552 C52.487075,42.5785769 52.359575,42.8961241 52.359575,43.2198458 L52.359575,50.118558 L44.870225,42.3483552 C44.648375,42.1190156 44.341525,41.9867042 44.030425,41.9867042 L28.559575,41.9867042 C27.244625,41.984058 26.182975,40.8796995 26.180425,39.5168929 L26.178725,37.0453175 L45.219575,37.0453175 C47.847775,37.0453175 49.977875,34.8374825 49.980425,32.107459 L49.980425,17.287709 L57.118725,17.287709 C58.431975,17.2912373 59.497025,18.3947137 59.500425,19.7575203 L59.500425,39.5168929 Z M20.228725,34.5772703 C19.915075,34.5772703 19.608225,34.7078175 19.387225,34.9380392 L9.517875,45.1771712 L9.517875,35.8112939 C9.517875,35.4831618 9.395475,35.1735533 9.171075,34.9380392 C8.946675,34.7051712 8.646625,34.5772703 8.330425,34.5772703 L4.758725,34.5772703 C3.444625,34.573742 2.382975,33.4711476 2.380425,32.107459 L2.377875,4.93865236 C2.382975,3.57496368 3.444625,2.47236934 4.758725,2.46795896 L45.219575,2.46795896 C46.532825,2.47236934 47.597025,3.57496368 47.600425,4.93865236 L47.600425,32.107459 C47.597025,33.4711476 46.532825,34.573742 45.219575,34.5772703 L20.228725,34.5772703 Z M57.118725,14.8187797 L49.978725,14.8187797 L49.977875,4.93865236 C49.977875,2.20862877 47.847775,0.0016759434 45.219575,0.000793867925 L4.758725,0.000793867925 C2.131375,0.0016759434 0.002975,2.20862877 0.000425,4.93865236 L0.000425,32.107459 C0.000425,34.8374825 2.131375,37.0453175 4.758725,37.0453175 L7.139575,37.0453175 L7.139575,48.1603505 C7.139575,48.6596052 7.429425,49.1103458 7.873975,49.3017561 C8.020175,49.3652656 8.175725,49.3970203 8.328725,49.3970203 C8.638125,49.3970203 8.943275,49.2700014 9.171075,49.0336052 L20.721725,37.0453175 L23.800425,37.0453175 L23.800425,39.5168929 C23.797875,42.2451524 25.931375,44.4556335 28.559575,44.4556335 L43.535725,44.4556335 L52.706375,53.9741099 C52.932475,54.2105061 53.237625,54.3357608 53.547025,54.3357608 C53.701725,54.3357608 53.856425,54.3040061 54.004325,54.2404967 C54.448025,54.0517325 54.739575,53.5992278 54.739575,53.0999731 L54.739575,44.4556335 L57.118725,44.4556335 C59.747775,44.4556335 61.877875,42.2451524 61.880425,39.5168929 L61.880425,19.7575203 C61.877875,17.0274967 59.747775,14.8187797 57.118725,14.8187797 L57.118725,14.8187797 Z" id="Fill-1" fill="#FF8000" mask="url(#mask-2)"></path>
                </g>
            </g>
        </g>
    </g>
</svg>