<?xml version="1.0" encoding="UTF-8"?>
<svg width="59px" height="52px" viewBox="0 0 59 52" version="1.1" xmlns="http://www.w3.org/2000/svg" xmlns:xlink="http://www.w3.org/1999/xlink">
    <!-- Generator: sketchtool 64 (101010) - https://sketch.com -->
    <title>898BA8AB-8DEF-4FF1-8A19-6A81016F4465@2x</title>
    <desc>Created with sketchtool.</desc>
    <g id="Page-1" stroke="none" stroke-width="1" fill="none" fill-rule="evenodd">
        <g id="Set-Picto" transform="translate(-697.000000, -37.000000)">
            <g id="picto_radio" transform="translate(698.000000, 38.000000)">
                <path d="M2.7051472,1.7991568 C2.2054312,1.7991568 1.7994592,2.2058848 1.7994592,2.7048448 L1.7994592,39.8675368 C1.7994592,40.3672528 2.2054312,40.7732248 2.7051472,40.7732248 L54.0398152,40.7732248 C54.5387752,40.7732248 54.9455032,40.3672528 54.9455032,39.8675368 L54.9455032,2.7048448 C54.9455032,2.2058848 54.5387752,1.7991568 54.0398152,1.7991568 L2.7051472,1.7991568 Z M54.0398152,42.5445328 L2.7051472,42.5445328 C1.2286792,42.5445328 0.0281512,41.3440048 0.0281512,39.8675368 L0.0281512,2.7048448 C0.0281512,1.2283768 1.2286792,0.0278488 2.7051472,0.0278488 L54.0398152,0.0278488 C55.5162832,0.0278488 56.7168112,1.2283768 56.7168112,2.7048448 L56.7168112,39.8675368 C56.7168112,41.3440048 55.5162832,42.5445328 54.0398152,42.5445328 L54.0398152,42.5445328 Z" id="Fill-1" fill="#1D1D1B"></path>
                <path d="M2.7051472,1.7991568 C2.2054312,1.7991568 1.7994592,2.2058848 1.7994592,2.7048448 L1.7994592,39.8675368 C1.7994592,40.3672528 2.2054312,40.7732248 2.7051472,40.7732248 L54.0398152,40.7732248 C54.5387752,40.7732248 54.9455032,40.3672528 54.9455032,39.8675368 L54.9455032,2.7048448 C54.9455032,2.2058848 54.5387752,1.7991568 54.0398152,1.7991568 L2.7051472,1.7991568 Z M54.0398152,42.5445328 L2.7051472,42.5445328 C1.2286792,42.5445328 0.0281512,41.3440048 0.0281512,39.8675368 L0.0281512,2.7048448 C0.0281512,1.2283768 1.2286792,0.0278488 2.7051472,0.0278488 L54.0398152,0.0278488 C55.5162832,0.0278488 56.7168112,1.2283768 56.7168112,2.7048448 L56.7168112,39.8675368 C56.7168112,41.3440048 55.5162832,42.5445328 54.0398152,42.5445328 Z" id="Stroke-3" stroke="#262626" stroke-width="0.756" stroke-linecap="round" stroke-linejoin="round"></path>
                <path d="M42.9880024,49.6308988 L13.7572624,49.6308988 C13.2681304,49.6308988 12.8712304,49.2347548 12.8712304,48.7448668 C12.8712304,48.2564908 13.2681304,47.8588348 13.7572624,47.8588348 L42.9880024,47.8588348 C43.4763784,47.8588348 43.8732784,48.2564908 43.8732784,48.7448668 C43.8732784,49.2347548 43.4763784,49.6308988 42.9880024,49.6308988" id="Fill-5" fill="#1D1D1B"></path>
                <path d="M42.9880024,49.6308988 L13.7572624,49.6308988 C13.2681304,49.6308988 12.8712304,49.2347548 12.8712304,48.7448668 C12.8712304,48.2564908 13.2681304,47.8588348 13.7572624,47.8588348 L42.9880024,47.8588348 C43.4763784,47.8588348 43.8732784,48.2564908 43.8732784,48.7448668 C43.8732784,49.2347548 43.4763784,49.6308988 42.9880024,49.6308988 Z" id="Stroke-7" stroke="#262626" stroke-width="0.756" stroke-linecap="round" stroke-linejoin="round"></path>
                <path d="M28.3722544,49.6308988 C27.8838784,49.6308988 27.4869784,49.2347548 27.4869784,48.7448668 L27.4869784,41.6588788 C27.4869784,41.1697468 27.8838784,40.7728468 28.3722544,40.7728468 C28.8613864,40.7728468 29.2582864,41.1697468 29.2582864,41.6588788 L29.2582864,48.7448668 C29.2582864,49.2347548 28.8613864,49.6308988 28.3722544,49.6308988" id="Fill-9" fill="#1D1D1B"></path>
                <path d="M28.3722544,49.6308988 C27.8838784,49.6308988 27.4869784,49.2347548 27.4869784,48.7448668 L27.4869784,41.6588788 C27.4869784,41.1697468 27.8838784,40.7728468 28.3722544,40.7728468 C28.8613864,40.7728468 29.2582864,41.1697468 29.2582864,41.6588788 L29.2582864,48.7448668 C29.2582864,49.2347548 28.8613864,49.6308988 28.3722544,49.6308988 Z" id="Stroke-11" stroke="#262626" stroke-width="0.756" stroke-linecap="round" stroke-linejoin="round"></path>
                <path d="M44.0444368,35.4737369 C42.3721648,35.4925648 35.8834168,31.7934568 34.6586968,28.3045168 C33.0620248,23.7594448 32.4330328,11.6279128 33.6955528,10.2179728 C33.9888808,10.2580408 35.0177968,10.6625008 36.6741928,12.3650128 C40.9342528,16.7414968 45.0854488,25.0945408 44.0444368,35.4737369 M22.0864168,28.3045168 C20.8662328,31.7783368 14.4160408,35.4736648 12.7226008,35.4736648 L12.7006768,35.4736648 C11.6589088,25.0952968 15.8108608,16.7414968 20.0709208,12.3650128 C21.7273168,10.6625008 22.7562328,10.2580408 23.0495608,10.2179728 C24.3120808,11.6279128 23.6823328,23.7594448 22.0864168,28.3045168 M36.0482248,9.4627288 C34.7584888,8.5320928 33.7227688,8.2380088 32.9660128,8.5835008 C32.5056088,8.7936688 31.4154568,9.2986768 31.2725728,14.1416128 C30.6798688,13.7794888 29.9941768,13.5277408 29.2578328,13.4143408 L29.2578328,6.0062968 C29.2578328,5.5179208 28.8616888,5.1217768 28.3725568,5.1217768 C27.8834248,5.1217768 27.4872808,5.5179208 27.4872808,6.0062968 L27.4872808,13.4113168 C26.7471568,13.5216928 26.0629768,13.7689048 25.4725408,14.1295168 C25.3281448,9.2971648 24.2395048,8.7936688 23.7791008,8.5835008 C23.0238568,8.2372528 21.9866248,8.5320928 20.6968888,9.4627288 C16.1813008,12.7180648 9.5443768,22.7804248 10.9656568,35.9181928 C11.0427688,36.6273208 11.5712128,37.1247688 12.3461128,37.2139768 C12.4300288,37.2230488 12.5184808,37.2283408 12.6114688,37.2283408 C15.4358848,37.2275848 22.3729408,32.8359808 23.7579328,28.8911728 C24.5358568,26.6745808 25.2223048,22.0917088 25.4256688,17.7462208 C25.4445688,17.3266408 25.4589328,16.9320088 25.4695168,16.5509848 C25.4808568,16.5328408 25.4959768,16.5184768 25.5065608,16.4988208 C26.0070328,15.6551248 27.1304488,15.1092928 28.3702888,15.1092928 C29.6411248,15.1092928 30.7758808,15.6747808 31.2604768,16.5487168 C31.2650128,16.5562768 31.2718168,16.5615688 31.2763528,16.5691288 C31.2869368,16.9448608 31.3005448,17.3334448 31.3194448,17.7462208 C31.5228088,22.0924648 32.2092568,26.6753368 32.9871808,28.8911728 C34.3721728,32.8367368 41.3092288,37.2283408 44.1336448,37.2283408 C44.2266328,37.2283408 44.3150848,37.2230488 44.3990008,37.2139768 C45.1731448,37.1247688 45.7023448,36.6273208 45.7787008,35.9181928 C47.1999808,22.7804248 40.5638128,12.7180648 36.0482248,9.4627288" id="Fill-13" fill="#1D1D1B"></path>
                <path d="M44.0444368,35.4737369 C42.3721648,35.4925648 35.8834168,31.7934568 34.6586968,28.3045168 C33.0620248,23.7594448 32.4330328,11.6279128 33.6955528,10.2179728 C33.9888808,10.2580408 35.0177968,10.6625008 36.6741928,12.3650128 C40.9342528,16.7414968 45.0854488,25.0945408 44.0444368,35.4737369 Z M22.0864168,28.3045168 C20.8662328,31.7783368 14.4160408,35.4736648 12.7226008,35.4736648 L12.7006768,35.4736648 C11.6589088,25.0952968 15.8108608,16.7414968 20.0709208,12.3650128 C21.7273168,10.6625008 22.7562328,10.2580408 23.0495608,10.2179728 C24.3120808,11.6279128 23.6823328,23.7594448 22.0864168,28.3045168 Z M36.0482248,9.4627288 C34.7584888,8.5320928 33.7227688,8.2380088 32.9660128,8.5835008 C32.5056088,8.7936688 31.4154568,9.2986768 31.2725728,14.1416128 C30.6798688,13.7794888 29.9941768,13.5277408 29.2578328,13.4143408 L29.2578328,6.0062968 C29.2578328,5.5179208 28.8616888,5.1217768 28.3725568,5.1217768 C27.8834248,5.1217768 27.4872808,5.5179208 27.4872808,6.0062968 L27.4872808,13.4113168 C26.7471568,13.5216928 26.0629768,13.7689048 25.4725408,14.1295168 C25.3281448,9.2971648 24.2395048,8.7936688 23.7791008,8.5835008 C23.0238568,8.2372528 21.9866248,8.5320928 20.6968888,9.4627288 C16.1813008,12.7180648 9.5443768,22.7804248 10.9656568,35.9181928 C11.0427688,36.6273208 11.5712128,37.1247688 12.3461128,37.2139768 C12.4300288,37.2230488 12.5184808,37.2283408 12.6114688,37.2283408 C15.4358848,37.2275848 22.3729408,32.8359808 23.7579328,28.8911728 C24.5358568,26.6745808 25.2223048,22.0917088 25.4256688,17.7462208 C25.4445688,17.3266408 25.4589328,16.9320088 25.4695168,16.5509848 C25.4808568,16.5328408 25.4959768,16.5184768 25.5065608,16.4988208 C26.0070328,15.6551248 27.1304488,15.1092928 28.3702888,15.1092928 C29.6411248,15.1092928 30.7758808,15.6747808 31.2604768,16.5487168 C31.2650128,16.5562768 31.2718168,16.5615688 31.2763528,16.5691288 C31.2869368,16.9448608 31.3005448,17.3334448 31.3194448,17.7462208 C31.5228088,22.0924648 32.2092568,26.6753368 32.9871808,28.8911728 C34.3721728,32.8367368 41.3092288,37.2283408 44.1336448,37.2283408 C44.2266328,37.2283408 44.3150848,37.2230488 44.3990008,37.2139768 C45.1731448,37.1247688 45.7023448,36.6273208 45.7787008,35.9181928 C47.1999808,22.7804248 40.5638128,12.7180648 36.0482248,9.4627288 Z" id="Stroke-15" stroke="#262626" stroke-width="0.756" stroke-linecap="round" stroke-linejoin="round"></path>
            </g>
        </g>
    </g>
</svg>