<?xml version="1.0" encoding="UTF-8"?>
<svg width="130px" height="130px" viewBox="0 0 130 130" version="1.1" xmlns="http://www.w3.org/2000/svg" xmlns:xlink="http://www.w3.org/1999/xlink">
    <!-- Generator: sketchtool 64 (101010) - https://sketch.com -->
    <title>7EE6F605-448A-4518-A9F5-E5D4A4E2410E@2x</title>
    <desc>Created with sketchtool.</desc>
    <g id="Page-1" stroke="none" stroke-width="1" fill="none" fill-rule="evenodd">
        <g id="01-HOME-portail-V3-PICTOS" transform="translate(-370.000000, -1746.000000)">
            <g id="Group-29" transform="translate(370.000000, 1746.000000)">
                <path d="M118.63994,37.96967 L65.12224,91.57237 C62.95134,93.74497 58.73024,95.08967 53.83934,96.64687 C47.08864,98.79567 38.68724,101.47147 32.44144,107.72747 L31.33474,108.83587 L20.35784,97.84197 L21.46624,96.73017 C27.69844,90.48947 30.38444,82.07617 32.54174,75.31867 C34.11934,70.38017 35.48104,66.11827 37.68424,63.91167 L90.75314,10.76117 C94.67504,6.83247 99.89064,4.84857 105.05694,4.84857 C109.80164,4.84857 114.50384,6.52137 118.12824,9.90097 C122.03824,13.54917 124.24484,18.49787 124.34004,23.83417 C124.43354,29.17387 122.41054,34.19397 118.63994,37.96967 L118.63994,37.96967 Z M17.95744,122.23017 C16.60424,123.58677 14.60504,124.36367 12.47154,124.36367 C10.33804,124.36367 8.33714,123.58677 6.98394,122.23017 C4.16194,119.40477 4.16194,114.06167 6.98394,111.23457 L17.54264,100.66057 L28.51954,111.65447 L17.95744,122.23017 Z M120.84484,6.98717 C111.72094,-1.52303 96.95814,-1.09463 87.93454,7.94427 L34.86734,61.09477 C31.98074,63.98477 30.48474,68.67507 28.74904,74.10487 C26.61554,80.78587 24.19814,88.35597 18.64934,93.91327 L16.13504,96.43267 L4.16704,108.41767 C-0.25466,112.84787 -0.25466,120.61857 4.16704,125.04877 C6.26314,127.14657 9.29084,128.35017 12.47324,128.35017 C15.65394,128.35017 18.68164,127.14657 20.77774,125.04877 L35.25834,110.54267 C40.81904,104.97347 48.37894,102.56627 55.04804,100.44297 C60.43364,98.72767 65.08484,97.24697 67.93914,94.38927 L121.45854,40.78657 C125.99754,36.23907 128.43534,30.19387 128.32144,23.76447 C128.20754,17.33507 125.55044,11.37657 120.84484,6.98717 L120.84484,6.98717 Z" id="Fill-1" fill="#1D1D1B"></path>
                <path d="M118.63994,37.96967 L65.12224,91.57237 C62.95134,93.74497 58.73024,95.08967 53.83934,96.64687 C47.08864,98.79567 38.68724,101.47147 32.44144,107.72747 L31.33474,108.83587 L20.35784,97.84197 L21.46624,96.73017 C27.69844,90.48947 30.38444,82.07617 32.54174,75.31867 C34.11934,70.38017 35.48104,66.11827 37.68424,63.91167 L90.75314,10.76117 C94.67504,6.83247 99.89064,4.84857 105.05694,4.84857 C109.80164,4.84857 114.50384,6.52137 118.12824,9.90097 C122.03824,13.54917 124.24484,18.49787 124.34004,23.83417 C124.43354,29.17387 122.41054,34.19397 118.63994,37.96967 Z M17.95744,122.23017 C16.60424,123.58677 14.60504,124.36367 12.47154,124.36367 C10.33804,124.36367 8.33714,123.58677 6.98394,122.23017 C4.16194,119.40477 4.16194,114.06167 6.98394,111.23457 L17.54264,100.66057 L28.51954,111.65447 L17.95744,122.23017 Z M120.84484,6.98717 C111.72094,-1.52303 96.95814,-1.09463 87.93454,7.94427 L34.86734,61.09477 C31.98074,63.98477 30.48474,68.67507 28.74904,74.10487 C26.61554,80.78587 24.19814,88.35597 18.64934,93.91327 L16.13504,96.43267 L4.16704,108.41767 C-0.25466,112.84787 -0.25466,120.61857 4.16704,125.04877 C6.26314,127.14657 9.29084,128.35017 12.47324,128.35017 C15.65394,128.35017 18.68164,127.14657 20.77774,125.04877 L35.25834,110.54267 C40.81904,104.97347 48.37894,102.56627 55.04804,100.44297 C60.43364,98.72767 65.08484,97.24697 67.93914,94.38927 L121.45854,40.78657 C125.99754,36.23907 128.43534,30.19387 128.32144,23.76447 C128.20754,17.33507 125.55044,11.37657 120.84484,6.98717 Z" id="Stroke-3" stroke="#262626" stroke-width="1.7" stroke-linecap="round" stroke-linejoin="round"></path>
                <path d="M80.053,62.80395 L66.317,49.04755 L96.6025,18.71445 L110.3385,32.47085 L80.053,62.80395 Z M98.0118,14.48655 C97.2638,13.74025 95.9429,13.74025 95.1932,14.48655 L62.0942,47.63825 C61.3173,48.41685 61.3173,49.67655 62.0942,50.45515 L78.6437,67.03185 C79.0177,67.40585 79.5243,67.61495 80.053,67.61495 C80.5817,67.61495 81.0866,67.40585 81.4623,67.03185 L114.563,33.87845 C115.3399,33.10155 115.3399,31.84015 114.563,31.06325 L98.0118,14.48655 Z" id="Fill-5" fill="#1D1D1B"></path>
                <path d="M80.053,62.80395 L66.317,49.04755 L96.6025,18.71445 L110.3385,32.47085 L80.053,62.80395 Z M98.0118,14.48655 C97.2638,13.74025 95.9429,13.74025 95.1932,14.48655 L62.0942,47.63825 C61.3173,48.41685 61.3173,49.67655 62.0942,50.45515 L78.6437,67.03185 C79.0177,67.40585 79.5243,67.61495 80.053,67.61495 C80.5817,67.61495 81.0866,67.40585 81.4623,67.03185 L114.563,33.87845 C115.3399,33.10155 115.3399,31.84015 114.563,31.06325 L98.0118,14.48655 Z" id="Stroke-7" stroke="#262626" stroke-width="1.7" stroke-linecap="round" stroke-linejoin="round"></path>
                <path d="M74.0282,124.34089 L122.8896,124.34089 L98.4589,82.14349 L74.0282,124.34089 Z M126.3423,128.32569 L70.5738,128.32569 C69.8615,128.32569 69.2036,127.94489 68.8483,127.32779 C68.4913,126.71239 68.493,125.95079 68.85,125.33539 L96.7334,77.16929 C97.0904,76.55559 97.7466,76.17649 98.4589,76.17649 C99.1695,76.17649 99.8257,76.55559 100.1827,77.16929 L128.0678,125.33539 C128.4231,125.95079 128.4248,126.71239 128.0695,127.32779 C127.7142,127.94489 127.0546,128.32569 126.3423,128.32569 L126.3423,128.32569 Z" id="Fill-9" fill="#1D1D1B"></path>
                <path d="M74.0282,124.34089 L122.8896,124.34089 L98.4589,82.14349 L74.0282,124.34089 Z M126.3423,128.32569 L70.5738,128.32569 C69.8615,128.32569 69.2036,127.94489 68.8483,127.32779 C68.4913,126.71239 68.493,125.95079 68.85,125.33539 L96.7334,77.16929 C97.0904,76.55559 97.7466,76.17649 98.4589,76.17649 C99.1695,76.17649 99.8257,76.55559 100.1827,77.16929 L128.0678,125.33539 C128.4231,125.95079 128.4248,126.71239 128.0695,127.32779 C127.7142,127.94489 127.0546,128.32569 126.3423,128.32569 Z" id="Stroke-11" stroke="#262626" stroke-width="1.7" stroke-linecap="round" stroke-linejoin="round"></path>
                <path d="M98.45907,121.35433 C97.93037,121.35433 97.42377,121.14523 97.05487,120.76613 C96.95457,120.67773 96.87467,120.57743 96.80497,120.46863 C96.73527,120.35813 96.66557,120.24933 96.61627,120.12863 C96.56697,119.99943 96.52617,119.88043 96.50747,119.75123 C96.47687,119.62033 96.46667,119.49113 96.46667,119.36193 C96.46667,118.83493 96.67577,118.32663 97.05487,117.94753 C97.78927,117.20973 99.12717,117.20973 99.86157,117.94753 C100.24067,118.32663 100.44977,118.83493 100.44977,119.36193 C100.44977,119.49113 100.43957,119.62033 100.40897,119.75123 C100.38007,119.88043 100.34947,119.99943 100.30017,120.12863 C100.25087,120.24933 100.18117,120.35813 100.11147,120.46863 C100.04177,120.57743 99.96187,120.67773 99.86157,120.76613 C99.49437,121.14523 98.98607,121.35433 98.45907,121.35433" id="Fill-13" fill="#1D1D1B"></path>
                <path d="M98.45907,121.35433 C97.93037,121.35433 97.42377,121.14523 97.05487,120.76613 C96.95457,120.67773 96.87467,120.57743 96.80497,120.46863 C96.73527,120.35813 96.66557,120.24933 96.61627,120.12863 C96.56697,119.99943 96.52617,119.88043 96.50747,119.75123 C96.47687,119.62033 96.46667,119.49113 96.46667,119.36193 C96.46667,118.83493 96.67577,118.32663 97.05487,117.94753 C97.78927,117.20973 99.12717,117.20973 99.86157,117.94753 C100.24067,118.32663 100.44977,118.83493 100.44977,119.36193 C100.44977,119.49113 100.43957,119.62033 100.40897,119.75123 C100.38007,119.88043 100.34947,119.99943 100.30017,120.12863 C100.25087,120.24933 100.18117,120.35813 100.11147,120.46863 C100.04177,120.57743 99.96187,120.67773 99.86157,120.76613 C99.49437,121.14523 98.98607,121.35433 98.45907,121.35433 Z" id="Stroke-15" stroke="#262626" stroke-width="1.7" stroke-linecap="round" stroke-linejoin="round"></path>
                <path d="M98.45907,113.38728 C97.35917,113.38728 96.46667,112.49478 96.46667,111.39488 L96.46667,99.44388 C96.46667,98.34398 97.35917,97.45318 98.45907,97.45318 C99.55727,97.45318 100.44977,98.34398 100.44977,99.44388 L100.44977,111.39488 C100.44977,112.49478 99.55727,113.38728 98.45907,113.38728" id="Fill-17" fill="#1D1D1B"></path>
                <path d="M98.45907,113.38728 C97.35917,113.38728 96.46667,112.49478 96.46667,111.39488 L96.46667,99.44388 C96.46667,98.34398 97.35917,97.45318 98.45907,97.45318 C99.55727,97.45318 100.44977,98.34398 100.44977,99.44388 L100.44977,111.39488 C100.44977,112.49478 99.55727,113.38728 98.45907,113.38728 Z" id="Stroke-19" stroke="#262626" stroke-width="1.7" stroke-linecap="round" stroke-linejoin="round"></path>
                <path d="M30.73804,39.8888 C29.63814,39.8888 28.74564,40.7813 28.74564,41.8812 C28.74564,46.3811 25.39494,49.6485 20.77944,49.6485 C16.16224,49.6485 12.81154,46.3811 12.81154,41.8812 L12.81154,20.7689 L19.58264,20.7689 C20.68254,20.7689 21.57504,19.8764 21.57504,18.7765 C21.57504,17.6766 20.68254,16.7841 19.58264,16.7841 L12.81154,16.7841 L12.81154,2.8424 C12.81154,1.7425 11.91904,0.85 10.81914,0.85 C9.71924,0.85 8.82674,1.7425 8.82674,2.8424 L8.82674,16.7841 L2.85294,16.7841 C1.75134,16.7841 0.86054,17.6766 0.86054,18.7765 C0.86054,19.8764 1.75134,20.7689 2.85294,20.7689 L8.82674,20.7689 L8.82674,41.8812 C8.82674,48.5809 13.96584,53.6333 20.77944,53.6333 C27.59134,53.6333 32.72874,48.5809 32.72874,41.8812 C32.72874,40.7813 31.83624,39.8888 30.73804,39.8888" id="Fill-21" fill="#1D1D1B"></path>
                <path d="M30.73804,39.8888 C29.63814,39.8888 28.74564,40.7813 28.74564,41.8812 C28.74564,46.3811 25.39494,49.6485 20.77944,49.6485 C16.16224,49.6485 12.81154,46.3811 12.81154,41.8812 L12.81154,20.7689 L19.58264,20.7689 C20.68254,20.7689 21.57504,19.8764 21.57504,18.7765 C21.57504,17.6766 20.68254,16.7841 19.58264,16.7841 L12.81154,16.7841 L12.81154,2.8424 C12.81154,1.7425 11.91904,0.85 10.81914,0.85 C9.71924,0.85 8.82674,1.7425 8.82674,2.8424 L8.82674,16.7841 L2.85294,16.7841 C1.75134,16.7841 0.86054,17.6766 0.86054,18.7765 C0.86054,19.8764 1.75134,20.7689 2.85294,20.7689 L8.82674,20.7689 L8.82674,41.8812 C8.82674,48.5809 13.96584,53.6333 20.77944,53.6333 C27.59134,53.6333 32.72874,48.5809 32.72874,41.8812 C32.72874,40.7813 31.83624,39.8888 30.73804,39.8888 Z" id="Stroke-23" stroke="#262626" stroke-width="1.7" stroke-linecap="round" stroke-linejoin="round"></path>
                <path d="M39.70112,12.79998 C37.50302,12.79998 35.71632,11.01328 35.71632,8.81688 C35.71632,6.62048 37.50302,4.83208 39.70112,4.83208 C41.89752,4.83208 43.68422,6.62048 43.68422,8.81688 C43.68422,11.01328 41.89752,12.79998 39.70112,12.79998 M39.70112,0.85068 C35.30662,0.85068 31.73322,4.42408 31.73322,8.81688 C31.73322,13.20968 35.30662,16.78478 39.70112,16.78478 C44.09392,16.78478 47.66902,13.20968 47.66902,8.81688 C47.66902,4.42408 44.09392,0.85068 39.70112,0.85068" id="Fill-25" fill="#1D1D1B"></path>
                <path d="M39.70112,12.79998 C37.50302,12.79998 35.71632,11.01328 35.71632,8.81688 C35.71632,6.62048 37.50302,4.83208 39.70112,4.83208 C41.89752,4.83208 43.68422,6.62048 43.68422,8.81688 C43.68422,11.01328 41.89752,12.79998 39.70112,12.79998 Z M39.70112,0.85068 C35.30662,0.85068 31.73322,4.42408 31.73322,8.81688 C31.73322,13.20968 35.30662,16.78478 39.70112,16.78478 C44.09392,16.78478 47.66902,13.20968 47.66902,8.81688 C47.66902,4.42408 44.09392,0.85068 39.70112,0.85068 Z" id="Stroke-27" stroke="#262626" stroke-width="1.7" stroke-linecap="round" stroke-linejoin="round"></path>
            </g>
        </g>
    </g>
</svg>