<?xml version="1.0" encoding="UTF-8"?>
<svg xmlns="http://www.w3.org/2000/svg" xmlns:xlink="http://www.w3.org/1999/xlink" width="62pt" height="62pt" viewBox="0 0 62 62" version="1.1">
	<g id="surface1">
	<path style=" stroke:none;fill-rule:nonzero;fill:rgb(0%,0%,0%);fill-opacity:1;" d="M 34.351562 32.246094 C 34.722656 31.246094 34.628906 30.136719 34.097656 29.210938 C 33.566406 28.289062 32.648438 27.652344 31.597656 27.472656 L 31.597656 25.621094 C 37.925781 25.320312 43.03125 20.335938 43.488281 14.015625 C 43.941406 7.695312 39.605469 2.03125 33.382812 0.824219 L 33.382812 0.160156 C 38.179688 0.804688 42.507812 3.367188 45.386719 7.257812 C 48.261719 11.148438 49.4375 16.039062 48.644531 20.8125 C 53.171875 22.515625 56.820312 25.976562 58.753906 30.414062 C 60.6875 34.847656 60.738281 39.878906 58.902344 44.355469 L 58.324219 44.023438 C 60.390625 38.03125 57.652344 31.441406 51.953125 28.679688 C 46.25 25.914062 39.382812 27.84375 35.957031 33.171875 Z M 38.425781 21.671875 C 34.078125 18.210938 27.921875 18.210938 23.574219 21.671875 C 22.515625 20.75 21.636719 19.640625 20.980469 18.402344 C 26.847656 13.738281 35.152344 13.738281 41.019531 18.402344 C 40.351562 19.636719 39.472656 20.742188 38.425781 21.671875 Z M 38.425781 21.671875 "/>
	<path style=" stroke:none;fill-rule:nonzero;fill:rgb(0%,0%,0%);fill-opacity:1;" d="M 28.242188 33.28125 C 28.921875 34.101562 29.933594 34.578125 31 34.578125 C 32.066406 34.578125 33.078125 34.101562 33.757812 33.28125 L 35.359375 34.207031 C 32.457031 39.839844 34.21875 46.75 39.464844 50.304688 C 44.710938 53.859375 51.785156 52.9375 55.941406 48.152344 L 56.515625 48.484375 C 53.558594 52.316406 49.175781 54.785156 44.367188 55.328125 C 39.5625 55.871094 34.738281 54.445312 31 51.371094 C 27.261719 54.445312 22.4375 55.871094 17.628906 55.328125 C 12.824219 54.785156 8.441406 52.316406 5.484375 48.484375 L 6.058594 48.152344 C 10.214844 52.9375 17.289062 53.859375 22.535156 50.304688 C 27.78125 46.75 29.542969 39.839844 26.640625 34.207031 Z M 35.367188 42.09375 C 40.535156 40.058594 43.613281 34.726562 42.792969 29.234375 C 44.117188 28.777344 45.519531 28.570312 46.917969 28.625 C 48.027344 36.035156 43.871094 43.226562 36.902344 45.976562 C 36.167969 44.78125 35.648438 43.46875 35.367188 42.09375 Z M 35.367188 42.09375 "/>
	<path style=" stroke:none;fill-rule:nonzero;fill:rgb(0%,0%,0%);fill-opacity:1;" d="M 30.402344 27.472656 C 29.351562 27.652344 28.433594 28.289062 27.902344 29.210938 C 27.371094 30.136719 27.277344 31.246094 27.648438 32.246094 L 26.042969 33.171875 C 22.617188 27.84375 15.75 25.914062 10.046875 28.679688 C 4.347656 31.441406 1.609375 38.03125 3.675781 44.023438 L 3.097656 44.355469 C 1.261719 39.878906 1.3125 34.847656 3.246094 30.414062 C 5.179688 25.976562 8.828125 22.515625 13.355469 20.8125 C 12.5625 16.039062 13.738281 11.148438 16.613281 7.257812 C 19.492188 3.367188 23.820312 0.804688 28.617188 0.160156 L 28.617188 0.824219 C 22.394531 2.03125 18.058594 7.695312 18.511719 14.015625 C 18.96875 20.335938 24.074219 25.320312 30.402344 25.621094 Z M 19.207031 29.234375 C 18.386719 34.726562 21.464844 40.058594 26.632812 42.09375 C 26.367188 43.472656 25.84375 44.789062 25.097656 45.976562 C 18.128906 43.226562 13.972656 36.035156 15.082031 28.625 C 16.480469 28.582031 17.878906 28.789062 19.207031 29.234375 Z M 19.207031 29.234375 "/>
	</g>
</svg>
